<svg id="Edit" xmlns="http://www.w3.org/2000/svg" width="40" height="40" viewBox="0 0 40 40">
  <g id="Ellipse_2" data-name="Ellipse 2" fill="#f3d73e" stroke="#3a1803" stroke-width="1">
    <circle cx="20" cy="20" r="20" stroke="none"/>
    <circle cx="20" cy="20" r="19.5" fill="none"/>
  </g>
  <g id="Ellipse_3" data-name="Ellipse 3" transform="translate(2 2)" fill="#554434" stroke="#3a1803" stroke-width="1">
    <circle cx="18" cy="18" r="18" stroke="none"/>
    <circle cx="18" cy="18" r="17.5" fill="none"/>
  </g>
  <path id="Rectangle_457" data-name="Rectangle 457" d="M0,0H36a0,0,0,0,1,0,0V0A18,18,0,0,1,18,18h0A18,18,0,0,1,0,0V0A0,0,0,0,1,0,0Z" transform="translate(2 20)" fill="#3a1803" opacity="0.3"/>
  <g id="Icon_material-mode-edit" data-name="Icon material-mode-edit" transform="translate(7.5 7.504)" fill="#fff">
    <path d="M 8.039977073669434 20.99625205993652 L 7.83286714553833 20.99625205993652 L 4.499997138977051 20.99625205993652 L 3.99999737739563 20.99625205993652 L 3.99999737739563 20.49625205993652 L 3.99999737739563 17.16338348388672 L 3.99999737739563 16.95627212524414 L 4.14644718170166 16.80983352661133 L 13.97619724273682 6.980082988739014 L 14.32974720001221 6.626523017883301 L 14.6832971572876 6.980082988739014 L 18.01616668701172 10.31295299530029 L 18.36972808837891 10.66650295257568 L 18.01616668701172 11.02005290985107 L 8.186417579650879 20.84980201721191 L 8.039977073669434 20.99625205993652 Z M 18.61359786987305 10.42263317108154 L 18.26004791259766 10.06907272338867 L 14.92717742919922 6.736202716827393 L 14.57361698150635 6.382652759552002 L 14.92717742919922 6.029102802276611 L 16.55361747741699 4.402662754058838 C 16.81569671630859 4.140583038330078 17.16377639770508 3.996252775192261 17.53374671936035 3.996252775192261 C 17.90371704101562 3.996252775192261 18.25179672241211 4.140583038330078 18.51387786865234 4.402662754058838 L 20.59358787536621 6.482372760772705 C 21.13403701782227 7.022812843322754 21.13403701782227 7.90219259262085 20.59358787536621 8.442632675170898 L 18.96714782714844 10.06907272338867 L 18.61359786987305 10.42263317108154 Z" stroke="none"/>
    <path d="M 7.83286714553833 20.49625205993652 L 17.66261672973633 10.66650295257568 L 14.32974720001221 7.333632946014404 L 4.499997138977051 17.16338348388672 L 4.499997138977051 20.49625205993652 L 7.83286714553833 20.49625205993652 M 18.61359786987305 9.715522766113281 L 20.24003791809082 8.089082717895508 C 20.58665657043457 7.742462635040283 20.58665657043457 7.18254280090332 20.24003791809082 6.835922718048096 L 18.16032791137695 4.756212711334229 C 17.81370544433594 4.409593105316162 17.25378608703613 4.409593105316162 16.90716743469238 4.756212711334229 L 15.28072738647461 6.382652759552002 L 18.61359786987305 9.715522766113281 M 8.247076988220215 21.49625205993652 L 3.49999737739563 21.49625205993652 L 3.49999737739563 16.74917221069336 L 16.20005798339844 4.049102783203125 C 16.55657768249512 3.692592859268188 17.03021812438965 3.496252775192261 17.53374671936035 3.496252775192261 C 18.03727722167969 3.496252775192261 18.51091766357422 3.692592859268188 18.8674373626709 4.049102783203125 L 20.94714736938477 6.128812789916992 C 21.68253707885742 6.864212989807129 21.68253707885742 8.060792922973633 20.94714736938477 8.79619312286377 L 8.247076988220215 21.49625205993652 Z" stroke="none" fill="#3a1803"/>
  </g>
</svg>
