<svg xmlns="http://www.w3.org/2000/svg" width="75" height="80" viewBox="0 0 75 80">
  <g id="Adventure" transform="translate(0 -732)">
    <rect id="Rectangle_460" data-name="Rectangle 460" width="75" height="80" transform="translate(0 732)" fill="rgba(255,255,255,0)"/>
    <g id="distance" transform="translate(26 752)">
      <g id="Group_185" data-name="Group 185">
        <g id="Group_184" data-name="Group 184">
          <g id="Path_1354" data-name="Path 1354" transform="translate(-325.334)" fill="#f3d73e">
            <path d="M 345.326171875 12.50046443939209 L 345.3125 12.50046443939209 L 345.305908203125 12.50046443939209 L 345.2992858886719 12.50029468536377 C 345.0321350097656 12.49322414398193 344.7837524414062 12.38252449035645 344.5998840332031 12.18857479095459 C 344.4161071777344 11.99473476409912 344.3188171386719 11.74096488952637 344.3258972167969 11.47402477264404 C 344.3312683105469 11.27316856384277 344.3322143554688 11.05863952636719 344.3324584960938 10.83289051055908 C 343.93798828125 10.30335426330566 343.1371459960938 9.195013046264648 342.4056701660156 7.977754592895508 C 341.3480834960938 6.217874526977539 340.833984375 4.91673469543457 340.833984375 3.999984502792358 C 340.833984375 1.51868462562561 342.8526611328125 -0.4999954104423523 345.333984375 -0.4999954104423523 C 347.8152770996094 -0.4999954104423523 349.8339538574219 1.51868462562561 349.8339538574219 3.999984502792358 C 349.8339538574219 4.917564392089844 349.31884765625 6.220364570617676 348.2591857910156 7.982834815979004 C 347.5271606445312 9.200383186340332 346.7266235351562 10.30801486968994 346.3324584960938 10.83699607849121 C 346.3322143554688 11.07779026031494 346.3312683105469 11.30723762512207 346.3255004882812 11.52677440643311 C 346.310791015625 12.0729341506958 345.871826171875 12.50046443939209 345.326171875 12.50046443939209 Z M 345.333984375 3.500044584274292 C 345.0582885742188 3.500044584274292 344.833984375 3.724334716796875 344.833984375 4.000034809112549 C 344.833984375 4.275724411010742 345.0582885742188 4.500014781951904 345.333984375 4.500014781951904 C 345.6096496582031 4.500014781951904 345.8339538574219 4.275704383850098 345.8339538574219 3.999984502792358 C 345.8339538574219 3.72431468963623 345.6096496582031 3.500044584274292 345.333984375 3.500044584274292 Z" stroke="none"/>
            <path d="M 345.333984375 4.76837158203125e-06 C 343.12841796875 4.76837158203125e-06 341.333984375 1.794425010681152 341.333984375 3.999984741210938 C 341.333984375 5.913144588470459 344.16845703125 9.785244941711426 344.8325805664062 10.66654491424561 C 344.8323974609375 10.95121479034424 344.8325805664062 11.23073482513428 344.8257141113281 11.48728466033936 C 344.8183898925781 11.76314449310303 345.0361633300781 11.99315452575684 345.3125 12.00046443939209 C 345.31689453125 12.00046443939209 345.3213195800781 12.00046443939209 345.326171875 12.00046443939209 C 345.595703125 12.00046443939209 345.818359375 11.78512477874756 345.82568359375 11.51367473602295 C 345.8325805664062 11.2504243850708 345.8323974609375 10.96307468414307 345.8325805664062 10.67029476165771 C 346.4923095703125 9.795044898986816 349.3339538574219 5.91539478302002 349.3339538574219 3.999984741210938 C 349.3339538574219 1.794425010681152 347.5395202636719 4.76837158203125e-06 345.333984375 4.76837158203125e-06 M 345.333984375 5.000014781951904 C 344.78271484375 5.000014781951904 344.333984375 4.551284790039062 344.333984375 4.000034332275391 C 344.333984375 3.448784828186035 344.78271484375 3.000044822692871 345.333984375 3.000044822692871 C 345.8852233886719 3.000044822692871 346.3339538574219 3.448734283447266 346.3339538574219 3.999984741210938 C 346.3339538574219 4.551284790039062 345.8852233886719 5.000014781951904 345.333984375 5.000014781951904 M 345.333984375 -0.999995231628418 C 348.0909729003906 -0.999995231628418 350.3339538574219 1.242984771728516 350.3339538574219 3.999984741210938 C 350.3339538574219 5.01091480255127 349.7954406738281 6.397994518280029 348.6876831054688 8.240474700927734 C 348.0014953613281 9.38178825378418 347.2568359375 10.4268798828125 346.8321228027344 11.00259971618652 C 346.8314819335938 11.18547058105469 346.8298645019531 11.36759471893311 346.8253479003906 11.53987503051758 C 346.80322265625 12.35924434661865 346.1447143554688 13.00046443939209 345.326171875 13.00046443939209 L 345.2860717773438 13.00011444091797 C 344.8853454589844 12.98951435089111 344.5127868652344 12.8234748840332 344.2370300292969 12.53257465362549 C 343.9613952636719 12.24182415008545 343.8154296875 11.86118507385254 343.8260498046875 11.46075439453125 C 343.8299865722656 11.3146333694458 343.8314819335938 11.15958976745605 343.8320922851562 10.99747085571289 C 343.4069519042969 10.42100715637207 342.6624145507812 9.375713348388672 341.9770812988281 8.235294342041016 C 340.8714599609375 6.395424365997314 340.333984375 5.010044574737549 340.333984375 3.999984741210938 C 340.333984375 1.242984771728516 342.5769653320312 -0.999995231628418 345.333984375 -0.999995231628418 Z" stroke="none" fill="#3a1803"/>
          </g>
          <g id="Path_1355" data-name="Path 1355" transform="translate(-278.528 -291.679)" fill="#f3d73e">
            <path d="M 292.72607421875 309.1570434570312 C 292.5748596191406 309.1570434570312 292.4291381835938 309.1237487792969 292.2929992675781 309.0580444335938 C 292.0535888671875 308.9435424804688 291.8720092773438 308.7412719726562 291.7832946777344 308.4892578125 C 291.6945190429688 308.2370300292969 291.7094116210938 307.96533203125 291.8251953125 307.7242431640625 C 292.1278686523438 307.0930480957031 292.639892578125 306.1913452148438 293.5862731933594 305.6543273925781 C 293.7371520996094 305.5686645507812 293.9081420898438 305.5233764648438 294.0807495117188 305.5233764648438 C 294.4400939941406 305.5233764648438 294.7731628417969 305.7177429199219 294.9499816894531 306.0306396484375 C 295.0814208984375 306.2616577148438 295.1151428222656 306.5315551757812 295.0441284179688 306.7892761230469 C 294.9731750488281 307.0467224121094 294.8062744140625 307.2611389160156 294.5741271972656 307.3930358886719 C 294.2201232910156 307.5943603515625 293.9282836914062 307.9634094238281 293.6281127929688 308.5895080566406 C 293.4628295898438 308.9342651367188 293.1087646484375 309.1570434570312 292.72607421875 309.1570434570312 Z" stroke="none"/>
            <path d="M 294.0807495117188 306.0233764648438 C 293.9968566894531 306.0233764648438 293.9116516113281 306.0445556640625 293.8330383300781 306.0891723632812 C 293.0078430175781 306.5574340820312 292.5493774414062 307.3703918457031 292.2759094238281 307.9407348632812 C 292.1562805175781 308.1897888183594 292.26123046875 308.4886169433594 292.5102844238281 308.6077270507812 C 292.7604675292969 308.7284240722656 293.0580749511719 308.6219482421875 293.17724609375 308.3733520507812 C 293.5244140625 307.6492309570312 293.8789367675781 307.2131958007812 294.3271484375 306.9582824707031 C 294.5669250488281 306.8220520019531 294.6513671875 306.516845703125 294.5146484375 306.276611328125 C 294.4230651855469 306.1145629882812 294.2547607421875 306.0233764648438 294.0807495117188 306.0233764648438 M 294.0807495117188 305.0233764648438 L 294.080810546875 305.0233764648438 C 294.6201171875 305.0234069824219 295.1199645996094 305.3151245117188 295.3852844238281 305.78466796875 C 295.5821228027344 306.1305541992188 295.6326904296875 306.5354309082031 295.5261535644531 306.922119140625 C 295.4197387695312 307.3082885742188 295.1693725585938 307.6299133300781 294.8211364746094 307.8277587890625 C 294.6600341796875 307.9193725585938 294.4073791503906 308.1206970214844 294.0789794921875 308.8056640625 C 293.8310241699219 309.3228454589844 293.2999877929688 309.6570434570312 292.72607421875 309.6570434570312 C 292.502197265625 309.6570434570312 292.2773132324219 309.6056213378906 292.0757141113281 309.5083618164062 C 291.7172241210938 309.3369445800781 291.4447937011719 309.0334167480469 291.3116760253906 308.6552734375 C 291.1784973144531 308.2769165039062 291.2008056640625 307.869384765625 291.37451171875 307.5077514648438 C 291.7060852050781 306.8161926269531 292.2709350585938 305.8258056640625 293.3395080566406 305.2194519042969 C 293.5653686523438 305.0912170410156 293.8217468261719 305.0233764648438 294.0807495117188 305.0233764648438 Z" stroke="none" fill="#3a1803"/>
          </g>
          <g id="Path_1356" data-name="Path 1356" transform="translate(-176.243 -438.407)" fill="#f3d73e">
            <path d="M 185.4108123779297 462.4659423828125 C 184.9767761230469 462.4659423828125 184.5946350097656 462.1886291503906 184.4598999023438 461.7759094238281 C 184.2891387939453 461.2509155273438 184.5769653320312 460.6854553222656 185.1013641357422 460.514892578125 C 185.7146911621094 460.3153381347656 186.2332763671875 460.043701171875 186.6867218017578 459.6843872070312 C 186.8603515625 459.5453186035156 187.0809783935547 459.4678344726562 187.305908203125 459.4678344726562 C 187.6121826171875 459.4678344726562 187.8980255126953 459.6053771972656 188.0901336669922 459.8451843261719 C 188.4337921142578 460.2789611816406 188.3609161376953 460.9090576171875 187.9293823242188 461.2519226074219 C 187.2944641113281 461.7549133300781 186.5513763427734 462.1467590332031 185.72021484375 462.4170227050781 C 185.6197052001953 462.4495544433594 185.5158233642578 462.4659423828125 185.4108123779297 462.4659423828125 Z" stroke="none"/>
            <path d="M 187.305908203125 459.9678344726562 C 187.1975250244141 459.9678344726562 187.0885925292969 460.0031433105469 186.9972534179688 460.0762939453125 C 186.4962463378906 460.4732666015625 185.9269561767578 460.7720947265625 185.2560272216797 460.9903564453125 C 184.9933471679688 461.0758056640625 184.8497619628906 461.3580322265625 184.9352111816406 461.6207275390625 C 185.0207977294922 461.8829040527344 185.3033294677734 462.0263366699219 185.5655975341797 461.9415283203125 C 186.3404846191406 461.6895751953125 187.0308990478516 461.3258361816406 187.6183471679688 460.8604431152344 C 187.8346710205078 460.6885681152344 187.8712768554688 460.3741149902344 187.6999053955078 460.1578063964844 C 187.6002044677734 460.0333557128906 187.4535827636719 459.9678344726562 187.305908203125 459.9678344726562 M 187.305908203125 458.9678344726562 C 187.7647552490234 458.9678344726562 188.1928253173828 459.1736755371094 188.4803466796875 459.5325622558594 L 188.4837341308594 459.5368347167969 C 188.9966735839844 460.1842651367188 188.8875122070312 461.1292724609375 188.2404174804688 461.6434020996094 C 187.5582122802734 462.183837890625 186.7626953125 462.6038208007812 185.8748168945312 462.8925170898438 C 185.7238616943359 462.9413757324219 185.5681762695312 462.9659423828125 185.4108123779297 462.9659423828125 C 184.7598114013672 462.9659423828125 184.1866607666016 462.550048828125 183.9845733642578 461.9310607910156 C 183.7283782958984 461.1434020996094 184.1601257324219 460.2952575683594 184.9466857910156 460.0393981933594 C 185.5013122558594 459.8589782714844 185.9680938720703 459.6153259277344 186.3735504150391 459.2946166992188 C 186.6373596191406 459.0838928222656 186.9683837890625 458.9678344726562 187.305908203125 458.9678344726562 Z" stroke="none" fill="#3a1803"/>
          </g>
          <g id="Path_1357" data-name="Path 1357" transform="translate(-243.412 -365.72)" fill="#f3d73e">
            <path d="M 255.8826293945312 387.1604919433594 C 255.6988372802734 387.1604919433594 255.5187225341797 387.1098022460938 255.3617401123047 387.013916015625 C 254.8912353515625 386.7259216308594 254.742431640625 386.1092834472656 255.0296478271484 385.6390686035156 C 255.3875579833984 385.0532531738281 255.6565093994141 384.4040222167969 255.8723907470703 383.8462219238281 C 256.0232238769531 383.4575805664062 256.3888854980469 383.2067565917969 256.8041076660156 383.2067565917969 C 256.9282531738281 383.2067565917969 257.0502624511719 383.2297058105469 257.1667785644531 383.2749938964844 C 257.6803283691406 383.4746704101562 257.9363403320312 384.054931640625 257.7376098632812 384.5684814453125 C 257.4893798828125 385.2091674804688 257.1764221191406 385.9611206054688 256.7366943359375 386.6817016601562 C 256.5534362792969 386.9815979003906 256.2342224121094 387.1604919433594 255.8826293945312 387.1604919433594 Z" stroke="none"/>
            <path d="M 256.8040771484375 383.7067565917969 C 256.6036376953125 383.7067260742188 256.4156188964844 383.8284606933594 256.3386840820312 384.0266723632812 C 256.1145629882812 384.6057739257812 255.8342895507812 385.2810668945312 255.4563598632812 385.8997192382812 C 255.3123168945312 386.1355285644531 255.3870239257812 386.4431762695312 255.6223754882812 386.5872192382812 C 255.8585815429688 386.7315368652344 256.1658935546875 386.6568908691406 256.3099060058594 386.4212341308594 C 256.7288513183594 385.7347106933594 257.0310668945312 385.0081481933594 257.2713012695312 384.3880310058594 C 257.3709106445312 384.1306457519531 257.2429809570312 383.8410949707031 256.9856567382812 383.7410278320312 C 256.9258117675781 383.7177734375 256.8643798828125 383.7067565917969 256.8040771484375 383.7067565917969 M 256.8040771484375 382.7067565917969 L 256.8042297363281 382.7067565917969 C 256.9906005859375 382.706787109375 257.1735229492188 382.7411804199219 257.3479614257812 382.8089599609375 C 258.1180725097656 383.1084289550781 258.5020141601562 383.9786682128906 258.2039184570312 384.7489624023438 C 257.9476318359375 385.410400390625 257.6237487792969 386.1879577636719 257.1635131835938 386.942138671875 C 256.8885498046875 387.3921508789062 256.4098205566406 387.6604919433594 255.8826293945312 387.6604919433594 C 255.6068420410156 387.6604919433594 255.3366088867188 387.58447265625 255.1011047363281 387.4406127929688 C 254.395263671875 387.0086059570312 254.1721496582031 386.0837097167969 254.6029968261719 385.37841796875 C 254.9402770996094 384.8263244628906 255.1982116699219 384.2028198242188 255.4060974121094 383.6657409667969 C 255.6323547363281 383.0828247070312 256.1809387207031 382.7067565917969 256.8040771484375 382.7067565917969 Z" stroke="none" fill="#3a1803"/>
          </g>
          <g id="Path_1358" data-name="Path 1358" transform="translate(-348.602 -266.109)" fill="#f3d73e">
            <path d="M 366.2456359863281 281.5830383300781 C 365.7248840332031 281.5830383300781 365.296875 281.1917724609375 365.2500610351562 280.6729431152344 C 365.2005004882812 280.1239318847656 365.60693359375 279.6368103027344 366.1560974121094 279.5870666503906 C 367.0569763183594 279.50634765625 367.2456359863281 279.2275085449219 367.3076171875 279.1358947753906 C 367.4946594238281 278.8606262207031 367.8045349121094 278.6968078613281 368.1370544433594 278.6968078613281 C 368.3373413085938 278.6968078613281 368.5307922363281 278.756103515625 368.6964721679688 278.8682861328125 C 368.9175415039062 279.0180358886719 369.0671081542969 279.2449035644531 369.11767578125 279.5071105957031 C 369.1683044433594 279.7695922851562 369.1136474609375 280.0359191894531 368.9637451171875 280.257080078125 C 368.4367980957031 281.0351867675781 367.5771484375 281.4676513671875 366.3357849121094 281.5790710449219 C 366.3104858398438 281.5816040039062 366.279541015625 281.5830383300781 366.2456359863281 281.5830383300781 Z" stroke="none"/>
            <path d="M 368.1370544433594 279.19677734375 C 367.9767150878906 279.19677734375 367.8186950683594 279.2734069824219 367.7217407226562 279.4160766601562 C 367.5571899414062 279.6592712402344 367.2202758789062 279.9937133789062 366.2012023925781 280.0850219726562 C 365.92626953125 280.1099243164062 365.7231750488281 280.3526000976562 365.748046875 280.6279907226562 C 365.771484375 280.8877563476562 365.98974609375 281.0830383300781 366.2456359863281 281.0830383300781 C 366.2607727050781 281.0830383300781 366.2759094238281 281.0825805664062 366.2910766601562 281.0810852050781 C 367.3735961914062 280.9839172363281 368.1123352050781 280.6225891113281 368.5498657226562 279.9765625 C 368.7047119140625 279.7481079101562 368.6445922851562 279.4370727539062 368.4160766601562 279.2822875976562 C 368.330810546875 279.2245178222656 368.2334899902344 279.1968078613281 368.1370544433594 279.19677734375 M 368.1370239257812 278.1968078613281 C 368.4377136230469 278.1968078613281 368.7281188964844 278.2858581542969 368.9768676757812 278.4543151855469 C 369.3084411621094 278.6789245605469 369.5327758789062 279.0191650390625 369.608642578125 279.4124145507812 C 369.6845703125 279.8061828613281 369.6025695800781 280.2057800292969 369.3776550292969 280.53759765625 C 368.7702331542969 281.4344787597656 367.7628173828125 281.9524230957031 366.3833618164062 282.0768127441406 C 366.3390197753906 282.0809936523438 366.2939147949219 282.0830383300781 366.2456359863281 282.0830383300781 C 365.4644165039062 282.0830383300781 364.8223266601562 281.4961547851562 364.7521057128906 280.7178649902344 C 364.677734375 279.8944091796875 365.2873229980469 279.1636962890625 366.1109924316406 279.089111328125 C 366.5152893066406 279.0528869628906 366.8220520019531 278.9613037109375 366.8934936523438 278.8556823730469 C 367.1742858886719 278.4424743652344 367.6387634277344 278.1968078613281 368.1370239257812 278.1968078613281 Z" stroke="none" fill="#3a1803"/>
          </g>
          <g id="Path_1359" data-name="Path 1359" transform="translate(0 -162.667)" fill="#f3d73e">
            <path d="M 6 187.1669769287109 C 5.872389793395996 187.1669769287109 5.745910167694092 187.1418762207031 5.624070167541504 187.0923767089844 C 5.544169902801514 187.0598297119141 5.486330032348633 187.0177917480469 5.455259799957275 186.9952087402344 L 5.454826831817627 186.9948883056641 C 5.420759201049805 186.9761352539062 5.367156982421875 186.9447937011719 5.312469959259033 186.8928527832031 L 5.304150104522705 186.8848876953125 L 5.300370216369629 186.8812255859375 L 5.296410083770752 186.8774261474609 L 5.296250343322754 186.8772583007812 C 5.11215877532959 186.7023162841797 3.692089319229126 185.3334197998047 2.307650089263916 183.4459533691406 C 0.4446299970149994 180.906005859375 -0.5 178.6252288818359 -0.5 176.6669921875 C -0.5 173.0221252441406 2.355139970779419 170.1669921875 6 170.1669921875 C 9.64486026763916 170.1669921875 12.5 173.0221252441406 12.5 176.6669921875 C 12.5 180.0038146972656 9.744940757751465 183.6034240722656 7.880185604095459 185.6571197509766 C 7.946216583251953 185.7776031494141 7.987183094024658 185.9125823974609 7.998050212860107 186.0552673339844 C 8.018369674682617 186.3217315673828 7.933549880981445 186.5801239013672 7.759220123291016 186.7827758789062 C 7.585209846496582 186.9850463867188 7.342780113220215 187.1076354980469 7.076580047607422 187.1279296875 C 6.734799861907959 187.1538543701172 6.372660160064697 187.1669769287109 6 187.1669769287109 Z M 6 174.1669921875 C 4.621500015258789 174.1669921875 3.5 175.2884979248047 3.5 176.6669921875 C 3.5 178.0454864501953 4.621500015258789 179.1669921875 6 179.1669921875 C 7.378499984741211 179.1669921875 8.5 178.0454864501953 8.5 176.6669921875 C 8.5 175.2884979248047 7.378499984741211 174.1669921875 6 174.1669921875 Z" stroke="none"/>
            <path d="M 6 186.6669769287109 C 6.364270210266113 186.6669769287109 6.710440158843994 186.6542663574219 7.038559913635254 186.6293792724609 C 7.313950061798096 186.6083831787109 7.520490169525146 186.3686218261719 7.499489784240723 186.0932312011719 C 7.484479904174805 185.8961639404297 7.356939792633057 185.7424621582031 7.184770107269287 185.6734619140625 C 8.762439727783203 183.9910278320312 12 180.1204528808594 12 176.6669921875 C 12 173.302734375 9.364270210266113 170.6669921875 6 170.6669921875 C 2.635730028152466 170.6669921875 -8.881784197001252e-16 173.302734375 -8.881784197001252e-16 176.6669921875 C -8.881784197001252e-16 181.1020660400391 5.346940040588379 186.236328125 5.645770072937012 186.5196533203125 C 5.645770072937012 186.5196533203125 5.646979808807373 186.5208740234375 5.647550106048584 186.5214233398438 C 5.649189949035645 186.5229797363281 5.65546989440918 186.5290679931641 5.656779766082764 186.5302886962891 C 5.677450180053711 186.5499267578125 5.703229904174805 186.5590209960938 5.726160049438477 186.5744018554688 C 5.754519939422607 186.5935211181641 5.780159950256348 186.6160736083984 5.812270164489746 186.629150390625 C 5.872499942779541 186.6536254882812 5.935969829559326 186.6669769287109 6 186.6669769287109 M 6 173.6669921875 C 7.65431022644043 173.6669921875 9 175.0126800537109 9 176.6669921875 C 9 178.3212585449219 7.65431022644043 179.6669921875 6 179.6669921875 C 4.34568977355957 179.6669921875 3 178.3213043212891 3 176.6669921875 C 3 175.0126800537109 4.34568977355957 173.6669921875 6 173.6669921875 M 6 187.6669769287109 C 5.807569980621338 187.6669769287109 5.617770195007324 187.6295166015625 5.435870170593262 187.5556182861328 C 5.320080757141113 187.5084381103516 5.23545503616333 187.4525604248047 5.185073852539062 187.4167938232422 C 5.132662296295166 187.3864440917969 5.05116081237793 187.3342437744141 4.96815013885498 187.2554016113281 L 4.968186855316162 187.25537109375 L 4.951012134552002 187.2389526367188 C 4.309526443481445 186.6297149658203 -1 181.4412231445312 -1 176.6669921875 C -1 172.7417602539062 2.074769973754883 169.6669921875 6 169.6669921875 C 9.925230026245117 169.6669921875 13 172.7417602539062 13 176.6669921875 C 13 180.0451965332031 10.36181640625 183.6218566894531 8.455582618713379 185.7647857666016 C 8.476190567016602 185.8466186523438 8.490029335021973 185.9310150146484 8.496600151062012 186.0172882080078 C 8.527090072631836 186.4170989990234 8.399829864501953 186.8047790527344 8.138270378112793 187.1088562011719 C 7.877299785614014 187.4122161865234 7.513750076293945 187.5960540771484 7.114590167999268 187.6264953613281 C 6.760079860687256 187.6533660888672 6.385220050811768 187.6669769287109 6 187.6669769287109 Z M 6 174.6669921875 C 4.897200107574463 174.6669921875 4 175.5641937255859 4 176.6669921875 C 4 177.7697906494141 4.897200107574463 178.6669921875 6 178.6669921875 C 7.102799892425537 178.6669921875 8 177.7697906494141 8 176.6669921875 C 8 175.5641937255859 7.102799892425537 174.6669921875 6 174.6669921875 Z" stroke="none" fill="#3a1803"/>
          </g>
        </g>
      </g>
    </g>
    <text id="Adventure-2" data-name="Adventure" transform="translate(38 789)" fill="#f3d73e" font-size="10" font-family="Roboto-Regular, Roboto"><tspan x="-22.563" y="0">Adventure</tspan></text>
  </g>
</svg>
