<svg xmlns="http://www.w3.org/2000/svg" width="75" height="80" viewBox="0 0 75 80">
  <g id="Adventure" transform="translate(0 -732)">
    <rect id="Rectangle_460" data-name="Rectangle 460" width="75" height="80" transform="translate(0 732)" fill="rgba(255,255,255,0)"/>
    <g id="distance" transform="translate(26 752)">
      <g id="Group_185" data-name="Group 185">
        <g id="Group_184" data-name="Group 184">
          <path id="Path_1354" data-name="Path 1354" d="M345.334,0a4,4,0,0,0-4,4c0,1.913,2.834,5.785,3.5,6.667,0,.285,0,.564-.007.821a.5.5,0,0,0,.487.513h.014a.5.5,0,0,0,.5-.487c.007-.263.007-.551.007-.843.66-.875,3.5-4.755,3.5-6.67A4,4,0,0,0,345.334,0Zm0,5a1,1,0,1,1,1-1A1,1,0,0,1,345.334,5Z" transform="translate(-325.334)" fill="#3a1803"/>
          <path id="Path_1355" data-name="Path 1355" d="M293.833,306.089a4.062,4.062,0,0,0-1.557,1.852.5.5,0,1,0,.9.433,2.988,2.988,0,0,1,1.15-1.415.5.5,0,1,0-.494-.869Z" transform="translate(-278.528 -291.679)" fill="#3a1803"/>
          <path id="Path_1356" data-name="Path 1356" d="M187,460.076a5.475,5.475,0,0,1-1.741.914.5.5,0,0,0,.31.951,6.545,6.545,0,0,0,2.053-1.081.5.5,0,1,0-.621-.784Z" transform="translate(-176.243 -438.407)" fill="#3a1803"/>
          <path id="Path_1357" data-name="Path 1357" d="M256.986,383.741a.5.5,0,0,0-.647.286,11.69,11.69,0,0,1-.882,1.873.5.5,0,0,0,.854.522,12.66,12.66,0,0,0,.961-2.033A.5.5,0,0,0,256.986,383.741Z" transform="translate(-243.412 -365.72)" fill="#3a1803"/>
          <path id="Path_1358" data-name="Path 1358" d="M368.416,279.282a.5.5,0,0,0-.694.134c-.165.243-.5.578-1.521.669a.5.5,0,0,0,.044,1l.045,0a2.835,2.835,0,0,0,2.259-1.1A.5.5,0,0,0,368.416,279.282Z" transform="translate(-348.602 -266.109)" fill="#3a1803"/>
          <path id="Path_1359" data-name="Path 1359" d="M7.185,185.673C8.762,183.991,12,180.12,12,176.667a5.936,5.936,0,0,0-6-6,5.936,5.936,0,0,0-6,6c0,4.435,5.347,9.569,5.646,9.853l0,0,.009.009a.47.47,0,0,0,.069.044.489.489,0,0,0,.086.055.5.5,0,0,0,.188.038q.546,0,1.039-.038a.5.5,0,0,0,.461-.536A.491.491,0,0,0,7.185,185.673ZM6,179.667a3,3,0,1,1,3-3A3,3,0,0,1,6,179.667Z" transform="translate(0 -162.667)" fill="#3a1803"/>
        </g>
      </g>
    </g>
    <text id="Adventure-2" data-name="Adventure" transform="translate(38 789)" fill="#3a1803" font-size="10" font-family="Roboto-Regular, Roboto"><tspan x="-22.563" y="0">Adventure</tspan></text>
  </g>
</svg>
