<svg xmlns="http://www.w3.org/2000/svg" width="75" height="80" viewBox="0 0 75 80">
  <g id="Hideout" transform="translate(0 -732)">
    <rect id="Rectangle_460" data-name="Rectangle 460" width="75" height="80" transform="translate(0 732)" fill="rgba(255,255,255,0)"/>
    <text id="Hideout-2" data-name="Hideout" transform="translate(38 789)" fill="#3a1803" font-size="10" font-family="Roboto-Regular, Roboto"><tspan x="-17.488" y="0">Hideout</tspan></text>
    <g id="castle" transform="translate(28 677.736)">
      <path id="Path_1913" data-name="Path 1913" d="M137.711,77.4V74.877c0-.339-.136-.613-.3-.613h-.474c-.168,0-.3.275-.3.613v.763c0,.2-.08.359-.178.359h-.288c-.1,0-.178-.161-.178-.359v-.763c0-.339-.136-.613-.3-.613h-.476c-.168,0-.3.275-.3.613v.763c0,.2-.08.359-.178.359h-.29c-.1,0-.177-.158-.178-.354l-.005-.776c0-.335-.138-.6-.3-.6h-.479c-.168,0-.3.275-.3.613v.763c0,.2-.08.359-.178.359H132.7c-.1,0-.178-.161-.178-.359v-.763c0-.339-.136-.613-.3-.613h-.476c-.168,0-.3.275-.3.613v.763c0,.2-.08.359-.178.359h-.288c-.1,0-.178-.161-.178-.359v-.763c0-.339-.136-.613-.3-.613h-.475c-.168,0-.3.275-.3.613V77.4l.638,1.72h0V98.264h6.716V79.12h0Zm-3.163,6.87h-1.676v-.842c0-.934.375-1.691.838-1.691s.838.757.838,1.692v.842Z" transform="translate(-123.711)" fill="#3a1803"/>
      <path id="Path_1914" data-name="Path 1914" d="M363.721,190.024a.817.817,0,0,0-.119-.439.346.346,0,0,0-.286-.179l-.626.01c-.22,0-.4.28-.4.619v.754c0,.2-.105.363-.235.363h-.38c-.13,0-.234-.162-.234-.363v-.77c0-.342-.179-.619-.4-.619h-.626c-.221,0-.4.277-.4.619v.77c0,.2-.105.363-.235.363H359.4c-.13,0-.235-.162-.235-.363v-.77c0-.342-.179-.619-.4-.619h-.627c-.221,0-.4.277-.4.619V205.4h6Z" transform="translate(-342.74 -107.136)" fill="#3a1803"/>
      <path id="Path_1915" data-name="Path 1915" d="M363.721,190.024a.817.817,0,0,0-.119-.439.346.346,0,0,0-.286-.179l-.626.01c-.22,0-.4.28-.4.619v.754c0,.2-.105.363-.235.363h-.38c-.13,0-.234-.162-.234-.363v-.77c0-.342-.179-.619-.4-.619h-.626c-.221,0-.4.277-.4.619v.77c0,.2-.105.363-.235.363H359.4c-.13,0-.235-.162-.235-.363v-.77c0-.342-.179-.619-.4-.619h-.627c-.221,0-.4.277-.4.619V205.4h6Z" transform="translate(-358.74 -107.136)" fill="#3a1803"/>
      <rect id="Rectangle_629" data-name="Rectangle 629" width="24" height="3" transform="translate(-2 95.264)" fill="#3a1803"/>
    </g>
  </g>
</svg>
