<svg xmlns="http://www.w3.org/2000/svg" width="75" height="80" viewBox="0 0 75 80">
  <g id="Hideout" transform="translate(0 -732)">
    <rect id="Rectangle_460" data-name="Rectangle 460" width="75" height="80" transform="translate(0 732)" fill="rgba(255,255,255,0)"/>
    <text id="Hideout-2" data-name="Hideout" transform="translate(38 789)" fill="#f3d73e" font-size="10" font-family="Roboto-Regular, Roboto"><tspan x="-17.488" y="0">Hideout</tspan></text>
    <g id="castle" transform="translate(28 677.736)">
      <g id="Path_1913" data-name="Path 1913" transform="translate(-123.711)" fill="#f3d73e" stroke-linecap="round" stroke-linejoin="round">
        <path d="M 137.5690155029297 98.76399993896484 L 137.0690155029297 98.76399993896484 L 130.3529052734375 98.76399993896484 L 129.8529052734375 98.76399993896484 L 129.8529052734375 98.26399993896484 L 129.8529052734375 79.22043609619141 L 129.2421875 77.5738525390625 L 129.2109832763672 77.48972320556641 L 129.2109832763672 77.39997863769531 L 129.2109832763672 75.99906921386719 L 129.2109832763672 74.87731170654297 C 129.2109832763672 74.23220825195312 129.5490570068359 73.76399993896484 130.0148468017578 73.76399993896484 L 130.4899139404297 73.76399993896484 C 130.7508850097656 73.76399993896484 130.9717864990234 73.91099548339844 131.1155700683594 74.15373229980469 C 131.2593536376953 73.91099548339844 131.4802398681641 73.76399993896484 131.7412261962891 73.76399993896484 L 132.2168579101562 73.76399993896484 C 132.4778442382812 73.76399993896484 132.6987152099609 73.91096496582031 132.8424987792969 74.15370178222656 C 132.9862976074219 73.91096496582031 133.2071685791016 73.76399993896484 133.4681549072266 73.76399993896484 L 133.9468231201172 73.76399993896484 C 134.2093353271484 73.76399993896484 134.4319152832031 73.91397094726562 134.5758361816406 74.16080474853516 C 134.7195129394531 73.91384887695312 134.942138671875 73.76399993896484 135.2056579589844 73.76399993896484 L 135.6813659667969 73.76399993896484 C 135.9423522949219 73.76399993896484 136.1632080078125 73.91094970703125 136.3070068359375 74.1536865234375 C 136.4507904052734 73.91094970703125 136.6716613769531 73.76399993896484 136.9326477050781 73.76399993896484 L 137.4071197509766 73.76399993896484 C 137.8729095458984 73.76399993896484 138.2109832763672 74.23220825195312 138.2109832763672 74.87731170654297 L 138.2109832763672 75.99906921386719 L 138.2109832763672 77.39997863769531 L 138.2109832763672 77.48972320556641 L 138.1797790527344 77.5738525390625 L 137.5690155029297 79.22062683105469 L 137.5690155029297 98.26399993896484 L 137.5690155029297 98.76399993896484 Z M 133.3722076416016 83.77015686035156 L 134.0484924316406 83.77015686035156 L 134.0485076904297 83.42825317382812 C 134.0485076904297 82.74615478515625 133.8234710693359 82.33386993408203 133.7104034423828 82.24659729003906 C 133.5973052978516 82.33383178710938 133.3722076416016 82.74594879150391 133.3722076416016 83.42784118652344 L 133.3722076416016 83.77015686035156 Z" stroke="none"/>
        <path d="M 130.0148468017578 74.26399993896484 C 129.8470306396484 74.26399993896484 129.7109832763672 74.53861236572266 129.7109832763672 74.87731170654297 L 129.7109832763672 77.39997863769531 L 130.3490753173828 79.12039184570312 L 130.3529052734375 79.12039184570312 L 130.3529052734375 98.26399993896484 L 137.0690155029297 98.26399993896484 L 137.0690155029297 79.12039184570312 L 137.0729064941406 79.12039184570312 L 137.7109832763672 77.39997863769531 L 137.7109832763672 74.87731170654297 C 137.7109832763672 74.53861236572266 137.5749206542969 74.26399993896484 137.4071197509766 74.26399993896484 L 136.9326477050781 74.26399993896484 C 136.7648620605469 74.26399993896484 136.6287841796875 74.53861236572266 136.6287841796875 74.87731170654297 L 136.6287841796875 75.63997650146484 C 136.6287841796875 75.83833312988281 136.5491333007812 75.99906921386719 136.4508819580078 75.99906921386719 L 136.1631164550781 75.99906921386719 C 136.0648498535156 75.99906921386719 135.9852294921875 75.8382568359375 135.9852294921875 75.63997650146484 L 135.9852294921875 74.87731170654297 C 135.9852294921875 74.53861236572266 135.8491516113281 74.26399993896484 135.6813659667969 74.26399993896484 L 135.2056579589844 74.26399993896484 C 135.0378570556641 74.26399993896484 134.9017944335938 74.53861236572266 134.9017944335938 74.87731170654297 L 134.9017944335938 75.63997650146484 C 134.9017944335938 75.83833312988281 134.8221435546875 75.99906921386719 134.7238922119141 75.99906921386719 L 134.4337463378906 75.99906921386719 C 134.3364562988281 75.99906921386719 134.2572021484375 75.84121704101562 134.2558746337891 75.64485931396484 L 134.2506103515625 74.86888885498047 C 134.2483215332031 74.53352355957031 134.113037109375 74.26399993896484 133.9468231201172 74.26399993896484 L 133.4681549072266 74.26399993896484 C 133.3003387451172 74.26399993896484 133.1642913818359 74.53861236572266 133.1642913818359 74.87731170654297 L 133.1642913818359 75.63997650146484 C 133.1642913818359 75.83833312988281 133.0846405029297 75.99906921386719 132.9863739013672 75.99906921386719 L 132.6986236572266 75.99906921386719 C 132.6003570556641 75.99906921386719 132.5207214355469 75.8382568359375 132.5207214355469 75.63997650146484 L 132.5207214355469 74.87731170654297 C 132.5207214355469 74.53861236572266 132.3846588134766 74.26399993896484 132.2168579101562 74.26399993896484 L 131.7412261962891 74.26399993896484 C 131.5734252929688 74.26399993896484 131.4373779296875 74.53861236572266 131.4373779296875 74.87731170654297 L 131.4373779296875 75.63997650146484 C 131.4373779296875 75.83833312988281 131.3576812744141 75.99906921386719 131.2594604492188 75.99906921386719 L 130.9716949462891 75.99906921386719 C 130.8734130859375 75.99906921386719 130.7937622070312 75.8382568359375 130.7937622070312 75.63997650146484 L 130.7937622070312 74.87731170654297 C 130.7937622070312 74.53861236572266 130.65771484375 74.26399993896484 130.4899139404297 74.26399993896484 L 130.0148468017578 74.26399993896484 M 134.5485076904297 84.27015686035156 L 132.8722076416016 84.27015686035156 L 132.8722076416016 83.42784118652344 C 132.8722076416016 82.49408721923828 133.2472991943359 81.73660278320312 133.7104187011719 81.73660278320312 C 134.1735382080078 81.73660278320312 134.5485076904297 82.49408721923828 134.5485076904297 83.42826843261719 L 134.5485076904297 84.27015686035156 M 130.0148468017578 73.26399993896484 L 130.4899139404297 73.26399993896484 C 130.7211151123047 73.26399993896484 130.9329376220703 73.32755279541016 131.1155700683594 73.44254302978516 C 131.2981872558594 73.32755279541016 131.5100250244141 73.26399993896484 131.7412261962891 73.26399993896484 L 132.2168579101562 73.26399993896484 C 132.4480590820312 73.26399993896484 132.6598815917969 73.32754516601562 132.8424987792969 73.44253540039062 C 133.0251312255859 73.32754516601562 133.2369384765625 73.26399993896484 133.4681549072266 73.26399993896484 L 133.9468231201172 73.26399993896484 C 134.1790924072266 73.26399993896484 134.3920440673828 73.32859802246094 134.5755462646484 73.44535827636719 C 134.7591857910156 73.32858276367188 134.9725494384766 73.26399993896484 135.2056579589844 73.26399993896484 L 135.6813659667969 73.26399993896484 C 135.9125671386719 73.26399993896484 136.1243743896484 73.32753753662109 136.3070068359375 73.44252777099609 C 136.4896240234375 73.32753753662109 136.7014312744141 73.26399993896484 136.9326477050781 73.26399993896484 L 137.4071197509766 73.26399993896484 C 138.1626281738281 73.26399993896484 138.7109832763672 73.94248962402344 138.7109832763672 74.87731170654297 L 138.7109832763672 77.39997863769531 C 138.7109832763672 77.5186767578125 138.6898498535156 77.63642883300781 138.6485748291016 77.74771881103516 L 138.0690155029297 79.31034851074219 L 138.0690155029297 98.26399993896484 C 138.0690155029297 98.81627655029297 137.6212921142578 99.26399993896484 137.0690155029297 99.26399993896484 L 130.3529052734375 99.26399993896484 C 129.8006286621094 99.26399993896484 129.3529052734375 98.81627655029297 129.3529052734375 98.26399993896484 L 129.3529052734375 79.31019592285156 L 128.7733917236328 77.74772644042969 C 128.7321166992188 77.63642883300781 128.7109832763672 77.5186767578125 128.7109832763672 77.39997863769531 L 128.7109832763672 74.87731170654297 C 128.7109832763672 73.94248962402344 129.2593383789062 73.26399993896484 130.0148468017578 73.26399993896484 Z" stroke="none" fill="#3a1803"/>
      </g>
      <g id="Path_1914" data-name="Path 1914" transform="translate(-342.74 -107.136)" fill="#f3d73e" stroke-linecap="round" stroke-linejoin="round">
        <path d="M 364.2406005859375 205.9000091552734 L 363.739990234375 205.9000091552734 L 357.739990234375 205.9000091552734 L 357.239990234375 205.9000091552734 L 357.239990234375 205.4000091552734 L 357.239990234375 190.0191955566406 C 357.239990234375 189.3916168212891 357.6355895996094 188.9000091552734 358.140625 188.9000091552734 L 358.7677612304688 188.9000091552734 C 359.1407165527344 188.9000091552734 359.4539794921875 189.1681671142578 359.5923156738281 189.5611724853516 C 359.7306518554688 189.1681671142578 360.0439453125 188.9000091552734 360.4169311523438 188.9000091552734 L 361.0433349609375 188.9000091552734 C 361.4197998046875 188.9000091552734 361.7354736328125 189.1732482910156 361.8717651367188 189.5723266601562 C 362.0099792480469 189.1874389648438 362.3169555664062 188.9222564697266 362.6818542480469 188.9164428710938 L 363.3081665039062 188.9064331054688 L 363.3121643066406 188.9063720703125 L 363.3201599121094 188.9063415527344 C 363.5965576171875 188.9063415527344 363.8517150878906 189.0538787841797 364.0201721191406 189.3111267089844 C 364.1494445800781 189.5086517333984 364.2206726074219 189.7617797851562 364.2208862304688 190.0240020751953 L 364.239990234375 205.3993835449219 L 364.2406005859375 205.9000091552734 Z" stroke="none"/>
        <path d="M 358.140625 189.4000091552734 C 357.9193725585938 189.4000091552734 357.739990234375 189.6772766113281 357.739990234375 190.0191955566406 L 357.739990234375 205.4000091552734 L 363.739990234375 205.4000091552734 L 363.7208862304688 190.0243988037109 C 363.7207641601562 189.8593292236328 363.6778564453125 189.7011566162109 363.6018676757812 189.5850372314453 C 363.52587890625 189.4689788818359 363.4244689941406 189.4036865234375 363.316162109375 189.4063720703125 L 362.6898193359375 189.4163818359375 C 362.4701538085938 189.4198760986328 362.2932739257812 189.6960144042969 362.2932739257812 190.0355682373047 L 362.2932739257812 190.7892608642578 C 362.2932739257812 190.9894561767578 362.1881713867188 191.1517639160156 362.0586547851562 191.1517639160156 L 361.6784057617188 191.1517639160156 C 361.5488891601562 191.1517639160156 361.4439086914062 190.9893798828125 361.4439086914062 190.7892608642578 L 361.4439086914062 190.0191955566406 C 361.4439086914062 189.6772766113281 361.2645263671875 189.4000091552734 361.0433349609375 189.4000091552734 L 360.4169311523438 189.4000091552734 C 360.1956176757812 189.4000091552734 360.0162963867188 189.6772766113281 360.0162963867188 190.0191955566406 L 360.0162963867188 190.7892608642578 C 360.0162963867188 190.9894561767578 359.9112548828125 191.1517639160156 359.78173828125 191.1517639160156 L 359.4028930664062 191.1517639160156 C 359.2733764648438 191.1517639160156 359.1683349609375 190.9893798828125 359.1683349609375 190.7892608642578 L 359.1683349609375 190.0191955566406 C 359.1683349609375 189.6772766113281 358.989013671875 189.4000091552734 358.7677612304688 189.4000091552734 L 358.140625 189.4000091552734 M 358.140625 188.4000091552734 L 358.7677612304688 188.4000091552734 C 359.0784301757812 188.4000091552734 359.3624572753906 188.5112915039062 359.5923156738281 188.7020263671875 C 359.8222045898438 188.5112915039062 360.1062622070312 188.4000091552734 360.4169311523438 188.4000091552734 L 361.0433349609375 188.4000091552734 C 361.3593139648438 188.4000091552734 361.6477355957031 188.51513671875 361.8796691894531 188.7118835449219 C 362.1029052734375 188.5294799804688 362.3759765625 188.4212493896484 362.6738891601562 188.41650390625 L 363.3001708984375 188.406494140625 C 363.3055114746094 188.4064025878906 363.3148498535156 188.4063415527344 363.3201904296875 188.4063415527344 C 363.7617492675781 188.4063415527344 364.1798095703125 188.6421966552734 364.4384765625 189.0372467041016 C 364.620361328125 189.315185546875 364.7206115722656 189.6654052734375 364.7208862304688 190.0236053466797 L 364.739990234375 205.3987731933594 C 364.7403259277344 205.6641998291016 364.6351013183594 205.9188690185547 364.4475402832031 206.1066741943359 C 364.2599487304688 206.2944793701172 364.0054321289062 206.4000091552734 363.739990234375 206.4000091552734 L 357.739990234375 206.4000091552734 C 357.1877136230469 206.4000091552734 356.739990234375 205.9522857666016 356.739990234375 205.4000091552734 L 356.739990234375 190.0191955566406 C 356.739990234375 189.1112365722656 357.355224609375 188.4000091552734 358.140625 188.4000091552734 Z" stroke="none" fill="#3a1803"/>
      </g>
      <g id="Path_1915" data-name="Path 1915" transform="translate(-358.74 -107.136)" fill="#f3d73e" stroke-linecap="round" stroke-linejoin="round">
        <path d="M 364.2406005859375 205.9000091552734 L 363.739990234375 205.9000091552734 L 357.739990234375 205.9000091552734 L 357.239990234375 205.9000091552734 L 357.239990234375 205.4000091552734 L 357.239990234375 190.0191955566406 C 357.239990234375 189.3916168212891 357.6355895996094 188.9000091552734 358.140625 188.9000091552734 L 358.7677612304688 188.9000091552734 C 359.1407165527344 188.9000091552734 359.4539794921875 189.1681671142578 359.5923156738281 189.5611724853516 C 359.7306518554688 189.1681671142578 360.0439453125 188.9000091552734 360.4169311523438 188.9000091552734 L 361.0433349609375 188.9000091552734 C 361.4197998046875 188.9000091552734 361.7354736328125 189.1732482910156 361.8717651367188 189.5723266601562 C 362.0099792480469 189.1874389648438 362.3169555664062 188.9222564697266 362.6818542480469 188.9164428710938 L 363.3081665039062 188.9064331054688 L 363.3121643066406 188.9063720703125 L 363.3201599121094 188.9063415527344 C 363.5965576171875 188.9063415527344 363.8517150878906 189.0538787841797 364.0201721191406 189.3111267089844 C 364.1494445800781 189.5086517333984 364.2206726074219 189.7617797851562 364.2208862304688 190.0240020751953 L 364.239990234375 205.3993835449219 L 364.2406005859375 205.9000091552734 Z" stroke="none"/>
        <path d="M 358.140625 189.4000091552734 C 357.9193725585938 189.4000091552734 357.739990234375 189.6772766113281 357.739990234375 190.0191955566406 L 357.739990234375 205.4000091552734 L 363.739990234375 205.4000091552734 L 363.7208862304688 190.0243988037109 C 363.7207641601562 189.8593292236328 363.6778564453125 189.7011566162109 363.6018676757812 189.5850372314453 C 363.52587890625 189.4689788818359 363.4244689941406 189.4036865234375 363.316162109375 189.4063720703125 L 362.6898193359375 189.4163818359375 C 362.4701538085938 189.4198760986328 362.2932739257812 189.6960144042969 362.2932739257812 190.0355682373047 L 362.2932739257812 190.7892608642578 C 362.2932739257812 190.9894561767578 362.1881713867188 191.1517639160156 362.0586547851562 191.1517639160156 L 361.6784057617188 191.1517639160156 C 361.5488891601562 191.1517639160156 361.4439086914062 190.9893798828125 361.4439086914062 190.7892608642578 L 361.4439086914062 190.0191955566406 C 361.4439086914062 189.6772766113281 361.2645263671875 189.4000091552734 361.0433349609375 189.4000091552734 L 360.4169311523438 189.4000091552734 C 360.1956176757812 189.4000091552734 360.0162963867188 189.6772766113281 360.0162963867188 190.0191955566406 L 360.0162963867188 190.7892608642578 C 360.0162963867188 190.9894561767578 359.9112548828125 191.1517639160156 359.78173828125 191.1517639160156 L 359.4028930664062 191.1517639160156 C 359.2733764648438 191.1517639160156 359.1683349609375 190.9893798828125 359.1683349609375 190.7892608642578 L 359.1683349609375 190.0191955566406 C 359.1683349609375 189.6772766113281 358.989013671875 189.4000091552734 358.7677612304688 189.4000091552734 L 358.140625 189.4000091552734 M 358.140625 188.4000091552734 L 358.7677612304688 188.4000091552734 C 359.0784301757812 188.4000091552734 359.3624572753906 188.5112915039062 359.5923156738281 188.7020263671875 C 359.8222045898438 188.5112915039062 360.1062622070312 188.4000091552734 360.4169311523438 188.4000091552734 L 361.0433349609375 188.4000091552734 C 361.3593139648438 188.4000091552734 361.6477355957031 188.51513671875 361.8796691894531 188.7118835449219 C 362.1029052734375 188.5294799804688 362.3759765625 188.4212493896484 362.6738891601562 188.41650390625 L 363.3001708984375 188.406494140625 C 363.3055114746094 188.4064025878906 363.3148498535156 188.4063415527344 363.3201904296875 188.4063415527344 C 363.7617492675781 188.4063415527344 364.1798095703125 188.6421966552734 364.4384765625 189.0372467041016 C 364.620361328125 189.315185546875 364.7206115722656 189.6654052734375 364.7208862304688 190.0236053466797 L 364.739990234375 205.3987731933594 C 364.7403259277344 205.6641998291016 364.6351013183594 205.9188690185547 364.4475402832031 206.1066741943359 C 364.2599487304688 206.2944793701172 364.0054321289062 206.4000091552734 363.739990234375 206.4000091552734 L 357.739990234375 206.4000091552734 C 357.1877136230469 206.4000091552734 356.739990234375 205.9522857666016 356.739990234375 205.4000091552734 L 356.739990234375 190.0191955566406 C 356.739990234375 189.1112365722656 357.355224609375 188.4000091552734 358.140625 188.4000091552734 Z" stroke="none" fill="#3a1803"/>
      </g>
      <g id="Rectangle_629" data-name="Rectangle 629" transform="translate(-2 95.264)" fill="#f3d73e" stroke="#3a1803" stroke-linecap="round" stroke-linejoin="round" stroke-width="1">
        <rect width="24" height="3" stroke="none"/>
        <rect x="-0.5" y="-0.5" width="25" height="4" fill="none"/>
      </g>
    </g>
  </g>
</svg>
