<svg xmlns="http://www.w3.org/2000/svg" width="75" height="80" viewBox="0 0 75 80">
  <g id="Leaderboard" transform="translate(0 -732)">
    <rect id="Rectangle_460" data-name="Rectangle 460" width="75" height="80" transform="translate(0 732)" fill="rgba(255,255,255,0)"/>
    <text id="Leaderboard-2" data-name="Leaderboard" transform="translate(38 789)" fill="#f3d73e" font-size="10" font-family="Roboto-Regular, Roboto"><tspan x="-28.062" y="0">Leaderboard</tspan></text>
    <g id="podium" transform="translate(26 738.542)">
      <g id="Group_187" data-name="Group 187" transform="translate(0 27.759)">
        <g id="Group_186" data-name="Group 186" transform="translate(0 0)">
          <g id="Path_1363" data-name="Path 1363" transform="translate(0 -302.517)" fill="#f3d73e">
            <path d="M 6.622842788696289 312.715576171875 L 6.122842788696289 312.715576171875 L 1.555922865867615 312.715576171875 C 0.4222828149795532 312.715576171875 -0.4999971687793732 311.7545776367188 -0.4999971687793732 310.5733337402344 L -0.4999971687793732 304.1592102050781 C -0.4999971687793732 302.9779968261719 0.4222828149795532 302.0169982910156 1.555922865867615 302.0169982910156 L 6.122842788696289 302.0169982910156 L 6.622842788696289 302.0169982910156 L 6.622842788696289 302.5169982910156 L 6.622842788696289 312.215576171875 L 6.622842788696289 312.715576171875 Z" stroke="none"/>
            <path d="M 1.555922985076904 302.5169982910156 C 0.697962760925293 302.5169982910156 2.86102294921875e-06 303.2536926269531 2.86102294921875e-06 304.1592102050781 L 2.86102294921875e-06 310.5733337402344 C 2.86102294921875e-06 311.4788818359375 0.697962760925293 312.215576171875 1.555922985076904 312.215576171875 L 6.122842788696289 312.215576171875 L 6.122842788696289 302.5169982910156 L 1.555922985076904 302.5169982910156 M 1.555922985076904 301.5169982910156 L 7.122842788696289 301.5169982910156 L 7.122842788696289 313.215576171875 L 1.555922985076904 313.215576171875 C 0.1465826034545898 313.215576171875 -0.9999971389770508 312.0302734375 -0.9999971389770508 310.5733337402344 L -0.9999971389770508 304.1592102050781 C -0.9999971389770508 302.7023010253906 0.1465826034545898 301.5169982910156 1.555922985076904 301.5169982910156 Z" stroke="none" fill="#3a1803"/>
          </g>
        </g>
      </g>
      <g id="Group_189" data-name="Group 189" transform="translate(17.877 30.721)">
        <g id="Group_188" data-name="Group 188">
          <g id="Path_1364" data-name="Path 1364" transform="translate(-381.379 -362.37)" fill="#f3d73e">
            <path d="M 385.9459838867188 369.6072387695312 L 381.3790283203125 369.6072387695312 L 380.8790283203125 369.6072387695312 L 380.8790283203125 369.1072387695312 L 380.8790283203125 362.3699951171875 L 380.8790283203125 361.8699951171875 L 381.3790283203125 361.8699951171875 L 385.9459838867188 361.8699951171875 C 387.0795288085938 361.8699951171875 388.0018005371094 362.8309631347656 388.0018920898438 364.0121459960938 L 388.0018920898438 367.4649963378906 C 388.0018920898438 368.646240234375 387.0796203613281 369.6072387695312 385.9459838867188 369.6072387695312 Z" stroke="none"/>
            <path d="M 381.3790283203125 362.3699951171875 L 381.3790283203125 369.1072387695312 L 385.9459838867188 369.1072387695312 C 386.803955078125 369.1072387695312 387.5018920898438 368.3705444335938 387.5018920898438 367.4649963378906 L 387.5018920898438 364.0121765136719 C 387.5018310546875 363.106689453125 386.8038940429688 362.3699951171875 385.9459838867188 362.3699951171875 L 381.3790283203125 362.3699951171875 M 380.3790283203125 361.3699951171875 L 385.9459838867188 361.3699951171875 C 387.355224609375 361.3699951171875 388.5018005371094 362.5552368164062 388.5018920898438 364.0121154785156 L 388.5018920898438 367.4649963378906 C 388.5018920898438 368.9219360351562 387.3553161621094 370.1072387695312 385.9459838867188 370.1072387695312 L 380.3790283203125 370.1072387695312 L 380.3790283203125 361.3699951171875 Z" stroke="none" fill="#3a1803"/>
          </g>
        </g>
      </g>
      <g id="Group_191" data-name="Group 191" transform="translate(7.531 24.041)">
        <g id="Group_190" data-name="Group 190">
          <g id="Path_1365" data-name="Path 1365" transform="translate(-160.655 -227.361)" fill="#f3d73e">
            <path d="M 170.0935516357422 241.2779998779297 L 169.5935516357422 241.2779998779297 L 160.6549835205078 241.2779998779297 L 160.1549835205078 241.2779998779297 L 160.1549835205078 240.7779998779297 L 160.1549835205078 229.0032348632812 C 160.1549835205078 227.8219909667969 161.0772705078125 226.8609924316406 162.2109069824219 226.8609924316406 L 168.0376434326172 226.8609924316406 C 169.1712799072266 226.8609924316406 170.0935516357422 227.8219757080078 170.0935516357422 229.0031890869141 L 170.0935516357422 240.7779998779297 L 170.0935516357422 241.2779998779297 Z M 165.0611114501953 231.7318420410156 L 165.0611114501953 232.7649230957031 L 165.0611114501953 234.2740783691406 C 165.0611114501953 234.4080505371094 165.152587890625 234.5170440673828 165.2650299072266 234.5170440673828 C 165.3775024414062 234.5170440673828 165.4690551757812 234.4080200195312 165.4690856933594 234.2739868164062 L 165.4690551757812 231.2916870117188 C 165.4687194824219 231.2851867675781 165.4684753417969 231.2787780761719 165.4683532714844 231.2723388671875 C 165.4682312011719 231.2668151855469 165.4679412841797 231.2613067626953 165.4675445556641 231.2558135986328 L 165.4665985107422 231.2455139160156 C 165.4660949707031 231.2411804199219 165.46533203125 231.2362518310547 165.4644927978516 231.2313385009766 L 165.4624481201172 231.2196044921875 C 165.4615173339844 231.2152557373047 165.4603118896484 231.2107849121094 165.4591217041016 231.206298828125 L 165.4559783935547 231.1948547363281 L 165.4518432617188 231.1832122802734 C 165.4505615234375 231.1797332763672 165.4489135742188 231.1750946044922 165.4470062255859 231.1705780029297 L 165.4419097900391 231.1596069335938 C 165.4405975341797 231.1568756103516 165.4387512207031 231.1529235839844 165.4366607666016 231.1491088867188 L 165.4310913085938 231.1394653320312 C 165.4288940429688 231.1357879638672 165.4260864257812 231.1313934326172 165.4231719970703 231.1271057128906 C 165.4221496582031 231.1255798339844 165.4211273193359 231.1240539550781 165.4201202392578 231.1225433349609 C 165.4192047119141 231.1213226318359 165.4182891845703 231.1201019287109 165.4173736572266 231.1188659667969 C 165.4153442382812 231.1161651611328 165.4123077392578 231.1124114990234 165.4092102050781 231.1086730957031 C 165.4066772460938 231.1056060791016 165.4042816162109 231.1026611328125 165.4017486572266 231.0998687744141 L 165.396240234375 231.0943450927734 C 165.3916168212891 231.0896911621094 165.3887786865234 231.0867919921875 165.3858032226562 231.0840759277344 L 165.3817901611328 231.0809478759766 L 165.3711395263672 231.0722808837891 L 165.3674011230469 231.0697631835938 L 165.3551177978516 231.0616760253906 L 165.3492431640625 231.0585632324219 L 165.34326171875 231.055419921875 L 165.3381500244141 231.0527496337891 L 165.3313903808594 231.0499877929688 L 165.512451171875 230.5838928222656 L 165.3257904052734 231.0477447509766 L 165.3215179443359 231.0460357666016 L 165.3110046386719 231.0429382324219 L 165.3016510009766 231.0403137207031 L 165.2958526611328 231.0394439697266 L 165.2859649658203 231.0377349853516 L 165.2776947021484 231.0370788574219 C 165.2754516601562 231.0369110107422 165.2715301513672 231.03662109375 165.2675933837891 231.0365295410156 C 165.2668914794922 231.0365142822266 165.2661743164062 231.0364990234375 165.2654418945312 231.0364837646484 C 165.2632751464844 231.0365600585938 165.2611083984375 231.0366058349609 165.2589416503906 231.0366516113281 C 165.2567138671875 231.0366973876953 165.2531890869141 231.0369415283203 165.2496490478516 231.0372314453125 L 165.2425537109375 231.0379333496094 C 165.2401733398438 231.0382385253906 165.2372131347656 231.0387725830078 165.2342834472656 231.0393218994141 L 165.2250366210938 231.0411224365234 L 165.2159423828125 231.0437622070312 L 165.2075805664062 231.0462799072266 L 165.1992034912109 231.0496826171875 C 165.1973114013672 231.0504760742188 165.1937866210938 231.0518646240234 165.1903533935547 231.0534820556641 L 165.1833648681641 231.0571899414062 C 165.1808929443359 231.0585174560547 165.1775512695312 231.0602569580078 165.1743621826172 231.0622100830078 L 165.16748046875 231.0666198730469 C 165.1631927490234 231.0694732666016 165.1603240966797 231.0715026855469 165.1575012207031 231.0736541748047 C 165.1520690917969 231.0777282714844 165.1472473144531 231.0812377929688 165.1427154541016 231.0844573974609 L 164.0201110839844 231.9733428955078 C 163.9184417724609 232.0538635253906 163.8981018066406 232.2214202880859 163.9766235351562 232.3318939208984 C 164.0158233642578 232.3870544433594 164.07275390625 232.4187316894531 164.1327362060547 232.4187316894531 C 164.1726226806641 232.4187316894531 164.2101440429688 232.4050445556641 164.2442321777344 232.3780517578125 L 164.2509002685547 232.3727874755859 L 165.0611114501953 231.7318420410156 Z" stroke="none"/>
            <path d="M 162.2109069824219 227.3609924316406 C 161.3529510498047 227.3609924316406 160.6549835205078 228.0976867675781 160.6549835205078 229.0032348632812 L 160.6549835205078 240.7779998779297 L 169.5935516357422 240.7779998779297 L 169.5935516357422 229.0031890869141 C 169.5935516357422 228.0976257324219 168.8955841064453 227.3609924316406 168.0376434326172 227.3609924316406 L 162.2109069824219 227.3609924316406 M 165.2650299072266 235.0170440673828 C 164.8762969970703 235.0170440673828 164.5611114501953 234.6843719482422 164.5611114501953 234.2740783691406 L 164.5611114501953 232.7649230957031 L 164.5545959472656 232.7700653076172 C 164.2435760498047 233.0163116455078 163.8024291992188 232.9498138427734 163.5690460205078 232.6215362548828 C 163.3357696533203 232.2932739257812 163.3987579345703 231.8276062011719 163.7097320556641 231.5813598632812 L 164.8425598144531 230.6843719482422 C 164.8468170166016 230.6809997558594 164.851318359375 230.6782836914062 164.8556213378906 230.6750640869141 C 164.866455078125 230.6668548583984 164.8774719238281 230.6590423583984 164.8888092041016 230.6514739990234 C 164.8974456787109 230.6456756591797 164.9060668945312 230.6400909423828 164.9148864746094 230.6347961425781 C 164.9259033203125 230.6281127929688 164.9371948242188 230.621826171875 164.9485778808594 230.6157531738281 C 164.9581451416016 230.6106567382812 164.9676666259766 230.6056976318359 164.9774017333984 230.6011047363281 C 164.9883422851562 230.5959625244141 164.9994812011719 230.5912017822266 165.0106353759766 230.5866088867188 C 165.0211944580078 230.5823059082031 165.0317840576172 230.5780944824219 165.04248046875 230.5743408203125 C 165.0531616210938 230.5705718994141 165.0640258789062 230.5672607421875 165.0749664306641 230.5640411376953 C 165.0865325927734 230.5606384277344 165.0981140136719 230.557373046875 165.1097869873047 230.5545959472656 C 165.1201324462891 230.5521240234375 165.1306457519531 230.550048828125 165.1411895751953 230.5480651855469 C 165.1537475585938 230.5456848144531 165.1664123535156 230.5436096191406 165.1790161132812 230.5419769287109 C 165.1890106201172 230.5406951904297 165.1990356445312 230.5397033691406 165.2091979980469 230.5388641357422 C 165.2278900146484 230.5373687744141 165.2464447021484 230.5358734130859 165.2650299072266 230.535888671875 C 165.2828979492188 230.5358581542969 165.3003845214844 230.5373229980469 165.3180541992188 230.5387115478516 C 165.3291625976562 230.5396118164062 165.3402709960938 230.5405883789062 165.3512420654297 230.5420227050781 C 165.3623046875 230.54345703125 165.3733215332031 230.5453491210938 165.3842926025391 230.5473175048828 C 165.3964233398438 230.5494995117188 165.4085235595703 230.5517730712891 165.4204711914062 230.5546417236328 C 165.4303131103516 230.5570220947266 165.4400177001953 230.5597839355469 165.4498596191406 230.5626068115234 C 165.4622039794922 230.5661773681641 165.4744720458984 230.5697326660156 165.4865264892578 230.5739440917969 C 165.4962310791016 230.5773010253906 165.5057830810547 230.5812072753906 165.5153961181641 230.5850677490234 C 165.5267944335938 230.5896759033203 165.5382232666016 230.5942230224609 165.5493316650391 230.5994262695312 C 165.5596923828125 230.6042175292969 165.5698547363281 230.6096649169922 165.5800323486328 230.6150054931641 C 165.5897979736328 230.6201477050781 165.5995788574219 230.625244140625 165.6091461181641 230.6308898925781 C 165.6201019287109 230.6373748779297 165.6307525634766 230.6444396972656 165.6414947509766 230.6515655517578 C 165.6497802734375 230.6571044921875 165.6581268310547 230.66259765625 165.6662445068359 230.6685333251953 C 165.6769256591797 230.6763610839844 165.6873321533203 230.684814453125 165.6976928710938 230.6933746337891 C 165.7053680419922 230.69970703125 165.7130584716797 230.7059936523438 165.7205657958984 230.7126770019531 C 165.7300720214844 230.7212371826172 165.7392730712891 230.7302398681641 165.7484588623047 230.7394409179688 C 165.7563781738281 230.7472991943359 165.76416015625 230.7552795410156 165.7717590332031 230.7635803222656 C 165.779541015625 230.7721405029297 165.7870788574219 230.781005859375 165.7945861816406 230.7901000976562 C 165.8028869628906 230.8001403808594 165.8109893798828 230.8103332519531 165.8188629150391 230.8208770751953 C 165.8219451904297 230.8250274658203 165.8253784179688 230.8286895751953 165.8283843994141 230.8329467773438 C 165.8315582275391 230.8374481201172 165.8341522216797 230.8422546386719 165.8371887207031 230.8467559814453 C 165.8449249267578 230.8581848144531 165.8523864746094 230.8698577880859 165.8595581054688 230.8817291259766 C 165.8650360107422 230.8908386230469 165.8703308105469 230.8999938964844 165.8753967285156 230.9092864990234 C 165.8817291259766 230.9208679199219 165.8876342773438 230.9327392578125 165.8934020996094 230.9447631835938 C 165.8982238769531 230.9549102783203 165.9029541015625 230.9649963378906 165.9073181152344 230.975341796875 C 165.9121856689453 230.98681640625 165.9166412353516 230.9985504150391 165.9210052490234 231.0103149414062 C 165.9251251220703 231.0214996337891 165.9291229248047 231.0327301025391 165.9326782226562 231.0440063476562 C 165.9362335205078 231.0552368164062 165.9393768310547 231.0666809082031 165.9424285888672 231.0781555175781 C 165.9456634521484 231.0903778076172 165.9487457275391 231.1026916503906 165.9513854980469 231.1150054931641 C 165.9537200927734 231.1259002685547 165.9556884765625 231.1369323730469 165.95751953125 231.1480560302734 C 165.9597625732422 231.161376953125 165.9617309570312 231.1747283935547 165.9632873535156 231.1880798339844 C 165.9645080566406 231.1986236572266 165.9654541015625 231.2092132568359 165.9662475585938 231.2198944091797 C 165.9672698974609 231.2340545654297 165.9679718017578 231.2482452392578 165.9682464599609 231.2624053955078 C 165.9683532714844 231.2679443359375 165.9690551757812 231.2733306884766 165.9690551757812 231.2788696289062 L 165.9690856933594 234.2741394042969 C 165.9689636230469 234.6843719482422 165.6538238525391 235.0170440673828 165.2650299072266 235.0170440673828 M 162.2109069824219 226.3609924316406 L 168.0376434326172 226.3609924316406 C 169.4469757080078 226.3609924316406 170.5935516357422 227.5462799072266 170.5935516357422 229.0031890869141 L 170.5935516357422 241.7779998779297 L 159.6549835205078 241.7779998779297 L 159.6549835205078 229.0032348632812 C 159.6549835205078 227.5462951660156 160.8015747070312 226.3609924316406 162.2109069824219 226.3609924316406 Z" stroke="none" fill="#3a1803"/>
          </g>
        </g>
      </g>
      <g id="Group_193" data-name="Group 193" transform="translate(8.028 13.458)">
        <g id="Group_192" data-name="Group 192" transform="translate(0 0)">
          <g id="Path_1366" data-name="Path 1366" transform="translate(-171.264 -13.458)" fill="#f3d73e">
            <path d="M 177.1858978271484 22.0165958404541 C 176.9696960449219 22.0165958404541 176.7539672851562 21.96026611328125 176.5620269775391 21.85369682312012 L 175.2357482910156 21.11774253845215 L 173.9093017578125 21.85375595092773 C 173.7173614501953 21.96028709411621 173.5016632080078 22.0165958404541 173.2855529785156 22.0165958404541 C 173.0021514892578 22.0165958404541 172.7311096191406 21.92361640930176 172.5017242431641 21.74770736694336 C 172.1019134521484 21.44110679626465 171.9047698974609 20.9350757598877 171.9872436523438 20.4271068572998 L 172.24658203125 18.8311939239502 L 171.1525421142578 17.70562553405762 C 170.8007659912109 17.34370613098145 170.6757965087891 16.8149471282959 170.8264007568359 16.32569694519043 C 170.9801483154297 15.8262767791748 171.3870391845703 15.46829605102539 171.8882904052734 15.39144611358643 L 173.3784790039062 15.16289615631104 L 174.0498199462891 13.72707653045654 C 174.2717895507812 13.25264644622803 174.7261657714844 12.9579963684082 175.2357025146484 12.9579963684082 C 175.745361328125 12.9579963684082 176.1997680664062 13.25268650054932 176.4215698242188 13.72707653045654 L 177.0928955078125 15.16284656524658 L 178.5830993652344 15.39139652252197 C 179.0843353271484 15.46831607818604 179.4912109375 15.82625675201416 179.6449584960938 16.32554626464844 C 179.7955322265625 16.81463623046875 179.6707458496094 17.34331703186035 179.3193054199219 17.7053165435791 L 178.2249908447266 18.8311882019043 L 178.4842681884766 20.42695617675781 C 178.5668182373047 20.93494606018066 178.3697204589844 21.44099617004395 177.9698791503906 21.74761581420898 C 177.7405242919922 21.9235668182373 177.4693908691406 22.0165958404541 177.1858978271484 22.0165958404541 Z" stroke="none"/>
            <path d="M 175.2357025146484 13.4579963684082 C 174.92236328125 13.4579963684082 174.6415252685547 13.64224624633789 174.5027618408203 13.93885612487793 L 173.7182769775391 15.61662673950195 L 171.9640808105469 15.88566589355469 C 171.6539459228516 15.9332160949707 171.401123046875 16.1581859588623 171.3042755126953 16.47279739379883 C 171.2074279785156 16.78741645812988 171.2866973876953 17.12627601623535 171.5110778808594 17.35712623596191 L 172.7804565429688 18.6630859375 L 172.4807891845703 20.50723648071289 C 172.4278564453125 20.83323669433594 172.5524444580078 21.1565055847168 172.8059997558594 21.3509464263916 C 173.0595550537109 21.54538726806641 173.3893585205078 21.57047653198242 173.6667022705078 21.41655731201172 L 175.2357482910156 20.54592514038086 L 176.8047485351562 21.41655731201172 C 177.0821380615234 21.57057189941406 177.4119873046875 21.54541778564453 177.6656188964844 21.35084533691406 C 177.9191589355469 21.15641784667969 178.043701171875 20.83303642272949 177.9907379150391 20.50714683532715 L 177.6911163330078 18.6630859375 L 178.9605712890625 17.35702705383301 C 179.1847381591797 17.12612724304199 179.2639465332031 16.78726577758789 179.1670989990234 16.47269630432129 C 179.0702514648438 16.1581859588623 178.8174743652344 15.9332160949707 178.5072937011719 15.88561630249023 L 176.7530975341797 15.6165771484375 L 175.9686431884766 13.93885612487793 C 175.8299560546875 13.64224624633789 175.5491180419922 13.4579963684082 175.2357025146484 13.4579963684082 M 175.2357025146484 12.4579963684082 C 175.9416198730469 12.4579963684082 176.5695648193359 12.86312675476074 176.87451171875 13.51528739929199 L 177.4327087402344 14.7091178894043 L 178.6588897705078 14.89717674255371 C 179.3512573242188 15.00342559814453 179.9121704101562 15.49435615539551 180.122802734375 16.17839622497559 C 180.3271331787109 16.84205627441406 180.1567077636719 17.56057739257812 179.6780548095703 18.05359649658203 L 178.7588653564453 18.99930572509766 L 178.9777984619141 20.34676742553711 C 179.0899200439453 21.03673553466797 178.8202972412109 21.72555541992188 178.2741546630859 22.14437675476074 C 177.9567718505859 22.38784599304199 177.5804138183594 22.51659774780273 177.1858978271484 22.51659774780273 C 176.8849792480469 22.51659774780273 176.5853118896484 22.43852615356445 176.3193206787109 22.29082679748535 L 175.2357482910156 21.68955993652344 L 174.1518859863281 22.29096603393555 C 173.8859100341797 22.43856620788574 173.5863342285156 22.51659774780273 173.2855529785156 22.51659774780273 C 172.8911590576172 22.51659774780273 172.514892578125 22.38791656494141 172.1974487304688 22.14446640014648 C 171.6513519287109 21.72567749023438 171.3816986083984 21.03691673278809 171.4937133789062 20.34697723388672 L 171.7127075195312 18.99930381774902 L 170.7939910888672 18.05411720275879 C 170.3148498535156 17.5611572265625 170.1441650390625 16.84249687194824 170.3485412597656 16.17858695983887 C 170.5591735839844 15.49436569213867 171.1201324462891 15.00337600708008 171.8125305175781 14.897216796875 L 173.0386657714844 14.70916557312012 L 173.5968933105469 13.51529693603516 C 173.9020538330078 12.86304664611816 174.5299682617188 12.4579963684082 175.2357025146484 12.4579963684082 Z" stroke="none" fill="#3a1803"/>
          </g>
        </g>
      </g>
    </g>
  </g>
</svg>
