<svg xmlns="http://www.w3.org/2000/svg" width="75" height="80" viewBox="0 0 75 80">
  <g id="Task" transform="translate(0 -732)">
    <rect id="Rectangle_460" data-name="Rectangle 460" width="75" height="80" transform="translate(0 732)" fill="rgba(255,255,255,0)"/>
    <g id="clipboard" transform="translate(5.667 752)">
      <g id="Group_183" data-name="Group 183" transform="translate(21.333)">
        <g id="Path_1353" data-name="Path 1353" transform="translate(-21.333)" fill="#f3d73e">
          <path d="M 40.8885498046875 24.5 L 23.7774600982666 24.5 C 22.15388107299805 24.5 20.83300018310547 23.19906044006348 20.83300018310547 21.59997940063477 L 20.83300018310547 4.80003023147583 C 20.83300018310547 3.200959920883179 22.15388107299805 1.900020003318787 23.7774600982666 1.900020003318787 L 28.55766487121582 1.900020003318787 C 29.22794151306152 0.4510014057159424 30.70261573791504 -0.5 32.33296966552734 -0.5 C 33.96328735351562 -0.5 35.43799209594727 0.451010674238205 36.10832214355469 1.900020003318787 L 40.8885498046875 1.900020003318787 C 42.51205062866211 1.900020003318787 43.83293151855469 3.200930118560791 43.83300018310547 4.799960136413574 L 43.83300018310547 21.59997940063477 C 43.83300018310547 23.19906044006348 42.51213073730469 24.5 40.8885498046875 24.5 Z M 25.71334266662598 14.39999294281006 L 29.88856887817383 18.49927139282227 L 38.95266723632812 9.600013732910156 L 37.9368896484375 8.602702140808105 L 30.23887062072754 16.16077041625977 L 29.88857078552246 16.50469970703125 L 29.53827095031738 16.16077041625977 L 26.7291202545166 13.40268230438232 L 25.71334266662598 14.39999294281006 Z M 32.33296966552734 2.900019884109497 C 31.93474960327148 2.900019884109497 31.61076927185059 3.214030027389526 31.61076927185059 3.599999904632568 C 31.61076927185059 3.985970020294189 31.93474960327148 4.299980163574219 32.33296966552734 4.299980163574219 C 32.7311897277832 4.299980163574219 33.05517196655273 3.985970020294189 33.05517196655273 3.599999904632568 C 33.05517196655273 3.214030027389526 32.7311897277832 2.900019884109497 32.33296966552734 2.900019884109497 Z" stroke="none"/>
          <path d="M 32.33296966552734 0 C 30.73797988891602 0 29.39352035522461 1.007999420166016 28.89244079589844 2.400020599365234 L 23.77746200561523 2.400020599365234 C 22.42692947387695 2.400020599365234 21.33300018310547 3.474000930786133 21.33300018310547 4.800029754638672 L 21.33300018310547 21.59997940063477 C 21.33300018310547 22.92596054077148 22.42686080932617 24 23.77746200561523 24 L 40.8885498046875 24 C 42.23907089233398 24 43.33300018310547 22.9260196685791 43.33300018310547 21.59997940063477 L 43.33300018310547 4.799980163574219 C 43.33293914794922 3.474000930786133 42.23907089233398 2.400020599365234 40.8885498046875 2.400020599365234 L 35.7735595703125 2.400020599365234 C 35.27243041992188 1.007999420166016 33.92797088623047 0 32.33296966552734 0 M 32.33296966552734 4.799980163574219 C 31.66077041625977 4.799980163574219 31.11077117919922 4.266000747680664 31.11077117919922 3.600000381469727 C 31.11077117919922 2.934000015258789 31.66077041625977 2.400020599365234 32.33296966552734 2.400020599365234 C 33.00517272949219 2.400020599365234 33.55516815185547 2.934000015258789 33.55516815185547 3.600000381469727 C 33.55516815185547 4.266000747680664 33.00517272949219 4.799980163574219 32.33296966552734 4.799980163574219 M 29.88856887817383 19.19997024536133 L 24.99966049194336 14.39999008178711 L 26.72911834716797 12.70197010040283 L 29.88856887817383 15.80399036407471 L 37.9368896484375 7.90199089050293 L 39.66635131835938 9.600009918212891 L 29.88856887817383 19.19997024536133 M 32.33296966552734 -1 C 34.04773712158203 -1 35.60906982421875 -0.05985450744628906 36.41515350341797 1.400020599365234 L 40.8885498046875 1.400020599365234 C 42.78774261474609 1.400020599365234 44.33292007446289 2.925220489501953 44.33300018310547 4.799930572509766 L 44.33300018310547 21.59997940063477 C 44.33300018310547 23.47476005554199 42.7878303527832 25 40.8885498046875 25 L 23.77746200561523 25 C 21.87818145751953 25 20.33300018310547 23.47476005554199 20.33300018310547 21.59997940063477 L 20.33300018310547 4.800029754638672 C 20.33300018310547 2.925260543823242 21.87818145751953 1.400020599365234 23.77746200561523 1.400020599365234 L 28.25082778930664 1.400020599365234 C 29.0568733215332 -0.05986976623535156 30.61817932128906 -1 32.33296966552734 -1 Z M 32.33296966552734 3.799980163574219 C 32.45549011230469 3.799980163574219 32.55517196655273 3.710269927978516 32.55517196655273 3.600000381469727 C 32.55517196655273 3.489730834960938 32.45549011230469 3.400020599365234 32.33296966552734 3.400020599365234 C 32.21044921875 3.400020599365234 32.11077117919922 3.489730834960938 32.11077117919922 3.600000381469727 C 32.11077117919922 3.710269927978516 32.21044921875 3.799980163574219 32.33296966552734 3.799980163574219 Z M 38.23898315429688 9.600002288818359 L 37.9368896484375 9.303403854370117 L 29.88856887817383 17.20541000366211 L 26.72911834716797 14.10338497161865 L 26.42703247070312 14.39998054504395 L 29.88856887817383 17.79855346679688 L 38.23898315429688 9.600002288818359 Z" stroke="none" fill="#3a1803"/>
        </g>
      </g>
    </g>
    <text id="Tasks" transform="translate(38 789)" fill="#f3d73e" font-size="10" font-family="Roboto-Regular, Roboto"><tspan x="-13.118" y="0">Tasks</tspan></text>
  </g>
</svg>
