<svg id="Back" xmlns="http://www.w3.org/2000/svg" width="40" height="40" viewBox="0 0 40 40">
  <g id="Ellipse_2" data-name="Ellipse 2" fill="#f3d73e" stroke="#3a1803" stroke-width="1">
    <circle cx="20" cy="20" r="20" stroke="none"/>
    <circle cx="20" cy="20" r="19.5" fill="none"/>
  </g>
  <g id="Ellipse_3" data-name="Ellipse 3" transform="translate(2 2)" fill="#554434" stroke="#3a1803" stroke-width="1">
    <circle cx="18" cy="18" r="18" stroke="none"/>
    <circle cx="18" cy="18" r="17.5" fill="none"/>
  </g>
  <path id="Rectangle_457" data-name="Rectangle 457" d="M0,0H36a0,0,0,0,1,0,0V0A18,18,0,0,1,18,18h0A18,18,0,0,1,0,0V0A0,0,0,0,1,0,0Z" transform="translate(2 20)" fill="#3a1803" opacity="0.3"/>
  <g id="Icon_ionic-md-arrow-round-back" data-name="Icon ionic-md-arrow-round-back" transform="translate(6.375 5.67)" fill="#fff">
    <path d="M 13.29705142974854 22.82988357543945 C 12.78659248352051 22.82988357543945 12.30823612213135 22.61360931396484 11.94908142089844 22.2207202911377 L 5.675701141357422 15.76773262023926 C 5.32081127166748 15.40406227111816 5.125000953674316 14.89660263061523 5.125000953674316 14.33952236175537 L 5.125000953674316 14.3202428817749 C 5.125000953674316 13.76316261291504 5.32081127166748 13.25570297241211 5.676361083984375 12.89135265350342 L 11.95362663269043 6.439058780670166 C 12.3127908706665 6.046160697937012 12.79113292694092 5.829892635345459 13.30160140991211 5.829892635345459 C 13.81594085693359 5.829892635345459 14.29623126983643 6.04929256439209 14.65400123596191 6.447682857513428 C 15.37078094482422 7.245852470397949 15.37078094482422 8.496313095092773 14.65400123596191 9.294482231140137 L 14.64621162414551 9.303162574768066 L 14.63801097869873 9.31147289276123 L 11.70344066619873 12.28748226165771 L 20.23822021484375 12.28748226165771 C 20.72173118591309 12.28748226165771 21.18041038513184 12.48089218139648 21.52977180480957 12.83209228515625 C 21.9166202545166 13.22097301483154 22.12800025939941 13.75383281707764 22.12496185302734 14.3325023651123 C 22.12497138977051 15.45606231689453 21.27654075622559 16.37228202819824 20.23367118835449 16.37228202819824 L 11.69889068603516 16.37228202819824 L 14.63346099853516 19.34829330444336 L 14.64165115356445 19.35660171508789 L 14.64945125579834 19.36528205871582 C 15.36623096466064 20.16344261169434 15.36623096466064 21.41391181945801 14.64945125579834 22.21209335327148 C 14.29168128967285 22.61048316955566 13.81139087677002 22.82988357543945 13.29705142974854 22.82988357543945 Z" stroke="none"/>
    <path d="M 13.30160236358643 6.329887390136719 C 12.94638824462891 6.329887390136719 12.59060573577881 6.480512619018555 12.3178014755249 6.781763076782227 L 6.034200668334961 13.24056243896484 C 5.76140022277832 13.52012252807617 5.625001907348633 13.90090274810791 5.625001907348633 14.3202428817749 L 5.625001907348633 14.33952236175537 C 5.625001907348633 14.75886249542236 5.76140022277832 15.1396427154541 6.034200668334961 15.41920280456543 L 12.31325149536133 21.87800216674805 C 12.85886001586914 22.48050308227539 13.73638153076172 22.48050308227539 14.27744102478027 21.87800216674805 C 14.81851100921631 21.27550315856934 14.81851100921631 20.3018627166748 14.27744102478027 19.69936370849609 L 10.5036506652832 15.87228298187256 L 20.23367118835449 15.87228298187256 C 21.00207138061523 15.87228298187256 21.62497138977051 15.18302249908447 21.62497138977051 14.32988262176514 C 21.62952041625977 13.46228218078613 21.00662231445312 12.78748226165771 20.23822021484375 12.78748226165771 L 10.50820159912109 12.78748226165771 L 14.28199100494385 8.960403442382812 C 14.82305145263672 8.357902526855469 14.82305145263672 7.384262084960938 14.28199100494385 6.781763076782227 C 14.01146125793457 6.480512619018555 13.65681648254395 6.329887390136719 13.30160236358643 6.329887390136719 M 13.30160140991211 5.32988166809082 C 13.95021152496338 5.32988166809082 14.5787410736084 5.615543365478516 15.02601146697998 6.113613128662109 C 15.91102123260498 7.099113464355469 15.91102123260498 8.64305305480957 15.02601146697998 9.62855339050293 L 14.99404144287109 9.662532806396484 L 12.89867973327637 11.78748321533203 L 20.23822021484375 11.78748321533203 C 20.85578155517578 11.78748321533203 21.44035148620605 12.03323173522949 21.88425064086914 12.47946166992188 C 22.36528778076172 12.96303844451904 22.62830543518066 13.62140083312988 22.62496948242188 14.33351039886475 C 22.62313842773438 15.73374557495117 21.55111503601074 16.87228393554688 20.23367118835449 16.87228393554688 L 12.89412975311279 16.87228393554688 L 15.02146148681641 19.03120231628418 C 15.90648078918457 20.01670265197754 15.90648078918457 21.5606632232666 15.02146148681641 22.54616165161133 C 14.57419109344482 23.04422378540039 13.94567108154297 23.32987213134766 13.29705142974854 23.32987213134766 C 12.64687252044678 23.32987213134766 12.03979873657227 23.05803298950195 11.58535957336426 22.56386947631836 L 5.317192077636719 16.11626243591309 C 4.871292114257812 15.65931224822998 4.625001907348633 15.02785301208496 4.625001907348633 14.33952236175537 L 4.625001907348633 14.3202428817749 C 4.625001907348633 13.63191223144531 4.871292114257812 13.00045299530029 5.318490982055664 12.54216194152832 L 11.5900993347168 6.09568977355957 C 12.04451084136963 5.601699829101562 12.65154266357422 5.32988166809082 13.30160140991211 5.32988166809082 Z" stroke="none" fill="#3a1803"/>
  </g>
</svg>
