<svg id="Calendar" xmlns="http://www.w3.org/2000/svg" width="40" height="40" viewBox="0 0 40 40">
  <g id="Ellipse_2" data-name="Ellipse 2" fill="#f3d73e" stroke="#3a1803" stroke-width="1">
    <circle cx="20" cy="20" r="20" stroke="none"/>
    <circle cx="20" cy="20" r="19.5" fill="none"/>
  </g>
  <g id="Ellipse_3" data-name="Ellipse 3" transform="translate(2 2)" fill="#554434" stroke="#3a1803" stroke-width="1">
    <circle cx="18" cy="18" r="18" stroke="none"/>
    <circle cx="18" cy="18" r="17.5" fill="none"/>
  </g>
  <path id="Rectangle_461" data-name="Rectangle 461" d="M0,0H36a0,0,0,0,1,0,0V0A18,18,0,0,1,18,18h0A18,18,0,0,1,0,0V0A0,0,0,0,1,0,0Z" transform="translate(2 20)" fill="#3a1803" opacity="0.3"/>
  <path id="Icon_awesome-calendar" data-name="Icon awesome-calendar" d="M.429,6.75H15.571A.427.427,0,0,1,16,7.172v9.141A1.7,1.7,0,0,1,14.286,18H1.714A1.7,1.7,0,0,1,0,16.313V7.172A.427.427,0,0,1,.429,6.75ZM16,5.2V3.937A1.7,1.7,0,0,0,14.286,2.25H12.571V.422A.427.427,0,0,0,12.143,0H10.714a.427.427,0,0,0-.429.422V2.25H5.714V.422A.427.427,0,0,0,5.286,0H3.857a.427.427,0,0,0-.429.422V2.25H1.714A1.7,1.7,0,0,0,0,3.937V5.2a.427.427,0,0,0,.429.422H15.571A.427.427,0,0,0,16,5.2Z" transform="translate(12 11)" fill="#fff" stroke="#3a1803" stroke-width="1"/>
</svg>
