<svg id="History" xmlns="http://www.w3.org/2000/svg" width="40" height="40" viewBox="0 0 40 40">
  <g id="BG">
    <g id="Ellipse_2" data-name="Ellipse 2" fill="#f3d73e" stroke="#3a1803" stroke-width="1">
      <circle cx="20" cy="20" r="20" stroke="none"/>
      <circle cx="20" cy="20" r="19.5" fill="none"/>
    </g>
    <g id="Ellipse_3" data-name="Ellipse 3" transform="translate(2 2)" fill="#554434" stroke="#3a1803" stroke-width="1">
      <circle cx="18" cy="18" r="18" stroke="none"/>
      <circle cx="18" cy="18" r="17.5" fill="none"/>
    </g>
    <path id="Rectangle_461" data-name="Rectangle 461" d="M0,0H36a0,0,0,0,1,0,0V0A18,18,0,0,1,18,18h0A18,18,0,0,1,0,0V0A0,0,0,0,1,0,0Z" transform="translate(2 20)" fill="#3a1803" opacity="0.3"/>
  </g>
  <g id="Icon_awesome-history" data-name="Icon awesome-history" transform="translate(11.438 11.438)" fill="#fff">
    <path d="M 8.56865406036377 17.06249618530273 L 8.562463760375977 17.06249618530273 C 6.62623405456543 17.06249618530273 4.731664180755615 16.3940372467041 3.227764129638672 15.18026733398438 C 2.947834014892578 14.95433712005615 2.776304006576538 14.61844730377197 2.757153987884521 14.25872707366943 C 2.737954139709473 13.89791679382324 2.873454093933105 13.54446697235107 3.12891411781311 13.28900718688965 L 3.492364168167114 12.92555713653564 C 3.734654188156128 12.68326663970947 4.056603908538818 12.54982757568359 4.398923873901367 12.54982757568359 C 4.683733940124512 12.54982757568359 4.963054180145264 12.64698696136475 5.18541431427002 12.82340717315674 C 6.153794288635254 13.59184741973877 7.321554183959961 13.99800682067871 8.562494277954102 13.99800682067871 C 11.55962371826172 13.99800682067871 13.99797439575195 11.55965709686279 13.99797439575195 8.562517166137695 C 13.99797439575195 5.565377235412598 11.55962371826172 3.127017021179199 8.562494277954102 3.127017021179199 C 7.345692157745361 3.127017021179199 6.180797576904297 3.528215646743774 5.231096744537354 4.265947341918945 L 6.486564159393311 5.521407127380371 C 6.778223991394043 5.813066959381104 6.864684104919434 6.24774694442749 6.706844329833984 6.628797054290771 C 6.549004077911377 7.009847164154053 6.180513858795166 7.256057262420654 5.768074035644531 7.256057262420654 L 1.078624129295349 7.256057262420654 C 0.5183340907096863 7.256057262420654 0.06250409781932831 6.800227165222168 0.06250409781932831 6.239927291870117 L 0.06250409781932831 1.550467133522034 C 0.06250409781932831 0.9895970821380615 0.5200141072273254 0.5333071351051331 1.082374095916748 0.5333071351051331 C 1.350704073905945 0.5333071351051331 1.604544043540955 0.6393570899963379 1.797134041786194 0.8319271206855774 L 3.053973436355591 2.08877420425415 C 4.590673923492432 0.7786656022071838 6.528399467468262 0.06249710917472839 8.562494277954102 0.06249710917472839 C 10.83012390136719 0.06249710917472839 12.96279430389404 0.9447870850563049 14.56763362884521 2.546837091445923 C 16.17226409912109 4.148676872253418 17.05829429626465 6.2793869972229 17.06248474121094 8.546466827392578 C 17.06667327880859 10.81206703186035 16.18331336975098 12.94772720336914 14.57511425018311 14.56002712249756 C 12.96707439422607 16.17218780517578 10.83394432067871 17.0609073638916 8.56865406036377 17.06249618530273 Z M 10.11498737335205 11.88772678375244 C 10.11496353149414 11.88772678375244 10.11497783660889 11.88772678375244 10.11495399475098 11.88772678375244 C 9.83342456817627 11.88771724700928 9.555804252624512 11.79238700866699 9.333253860473633 11.61930751800537 L 7.223264217376709 9.97819709777832 L 7.030233860015869 9.828057289123535 L 7.030233860015869 9.583517074584961 L 7.030233860015869 5.207666873931885 C 7.030233860015869 4.505076885223389 7.601834297180176 3.933477163314819 8.304424285888672 3.933477163314819 L 8.820553779602051 3.933477163314819 C 9.523154258728027 3.933477163314819 10.09475421905518 4.505076885223389 10.09475421905518 5.207666873931885 L 10.09475421905518 8.329244613647461 L 11.21465396881104 9.200297355651855 C 11.48330402374268 9.40922737121582 11.6545238494873 9.710297584533691 11.69673442840576 10.04802703857422 C 11.73895454406738 10.38574695587158 11.64712429046631 10.71969699859619 11.43816375732422 10.98835754394531 L 11.12130451202393 11.39576721191406 C 10.87812900543213 11.70841789245605 10.51132965087891 11.88772678375244 10.11498737335205 11.88772678375244 Z" stroke="none"/>
    <path d="M 8.562494277954102 0.5624961853027344 C 6.419013977050781 0.5624961853027344 4.472464561462402 1.405596733093262 3.03624439239502 2.778146743774414 L 1.443593978881836 1.185497283935547 C 1.118436813354492 0.8603687286376953 0.5625038146972656 1.090656280517578 0.5625038146972656 1.550467491149902 L 0.5625038146972656 6.239927291870117 C 0.5625038146972656 6.524996757507324 0.7935638427734375 6.756056785583496 1.078624725341797 6.756056785583496 L 5.768074035644531 6.756056785583496 C 6.227884292602539 6.756056785583496 6.458173751831055 6.200126647949219 6.133013725280762 5.874957084655762 L 4.495783805847168 4.237727165222168 C 5.557694435119629 3.238926887512207 6.98785400390625 2.627017021179199 8.562494277954102 2.627017021179199 C 11.84278392791748 2.627017021179199 14.49797439575195 5.281706809997559 14.49797439575195 8.562517166137695 C 14.49797439575195 11.84280776977539 11.84329414367676 14.49800682067871 8.562494277954102 14.49800682067871 C 7.168334007263184 14.49800682067871 5.88707447052002 14.01849746704102 4.874653816223145 13.21510696411133 C 4.566985130310059 12.97100734710693 4.123625755310059 13.00139808654785 3.845913887023926 13.27910709381104 L 3.482463836669922 13.64255714416504 C 3.157753944396973 13.96726703643799 3.184464454650879 14.50278663635254 3.541784286499023 14.79117679595947 C 4.91594409942627 15.90023708343506 6.665054321289062 16.56389808654785 8.568304061889648 16.56249618530273 C 12.97603416442871 16.55940628051758 16.57064437866211 12.95513725280762 16.56248474121094 8.54738712310791 C 16.55432319641113 4.136056900024414 12.9757137298584 0.5624961853027344 8.562494277954102 0.5624961853027344 M 8.304424285888672 4.433477401733398 C 7.876853942871094 4.433477401733398 7.530234336853027 4.780087471008301 7.530234336853027 5.207667350769043 L 7.530234336853027 9.583517074584961 L 9.640203475952148 11.22461700439453 C 9.977714538574219 11.48709678649902 10.46410369873047 11.42632675170898 10.72662353515625 11.08880710601807 L 11.04349422454834 10.68138694763184 C 11.30600357055664 10.3438777923584 11.24520397186279 9.857457160949707 10.90768432617188 9.594966888427734 L 9.594754219055176 8.573777198791504 L 9.594754219055176 5.207667350769043 C 9.594754219055176 4.780087471008301 9.248134613037109 4.433477401733398 8.820553779602051 4.433477401733398 L 8.304424285888672 4.433477401733398 M 8.562494277954102 -0.4375038146972656 C 10.96351432800293 -0.4375038146972656 13.22163391113281 0.4966869354248047 14.92087364196777 2.192967414855957 C 16.61990356445312 3.889037132263184 17.55804443359375 6.145087242126465 17.56248474121094 8.545536994934082 C 17.56692504882812 10.9448070526123 16.6317138671875 13.20619678497314 14.929123878479 14.91313743591309 C 13.2266845703125 16.61991691589355 10.96795463562012 17.56081771850586 8.569004058837891 17.56249618530273 L 8.562463760375977 17.56249618530273 C 6.512353897094727 17.56249618530273 4.506263732910156 16.85464668273926 2.913734436035156 15.5693473815918 C 2.523593902587891 15.25446701049805 2.284534454345703 14.78644752502441 2.257863998413086 14.28529739379883 C 2.231134414672852 13.78305721282959 2.419754028320312 13.29105758666992 2.775354385375977 12.93544769287109 L 3.13880443572998 12.57199668884277 C 3.47551441192627 12.23529720306396 3.923013687133789 12.04984664916992 4.398874282836914 12.04982757568359 C 4.796093940734863 12.04982757568359 5.185773849487305 12.18544769287109 5.496173858642578 12.43170738220215 C 6.375284194946289 13.12930679321289 7.435564041137695 13.49800682067871 8.562494277954102 13.49800682067871 C 11.2839241027832 13.49800682067871 13.49797439575195 11.28395652770996 13.49797439575195 8.562517166137695 C 13.49797439575195 6.31214714050293 11.98424339294434 4.408757209777832 9.921411514282227 3.817229270935059 C 10.33138084411621 4.14249324798584 10.59475421905518 4.644899368286133 10.59475421905518 5.207667350769043 L 10.59475421905518 8.084694862365723 L 11.52163410186768 8.805617332458496 C 11.89569473266602 9.096527099609375 12.13409423828125 9.515737533569336 12.19287395477295 9.986007690429688 C 12.25166416168213 10.45625686645508 12.12379455566406 10.9212474822998 11.83284378051758 11.29532718658447 L 11.51598358154297 11.70273780822754 C 11.17740440368652 12.13805770874023 10.6667537689209 12.38772773742676 10.11497402191162 12.38772773742676 C 9.722814559936523 12.38772773742676 9.336174011230469 12.25499725341797 9.026284217834473 12.01398658752441 L 6.530234336853027 10.07259750366211 L 6.530234336853027 7.551591873168945 C 6.30393123626709 7.682990074157715 6.04252815246582 7.756056785583496 5.768074035644531 7.756056785583496 L 1.078624725341797 7.756056785583496 C 0.2426338195800781 7.756056785583496 -0.4374961853027344 7.075926780700684 -0.4374961853027344 6.239927291870117 L -0.4374961853027344 1.550467491149902 C -0.4374961853027344 0.7139968872070312 0.2442646026611328 0.03339767456054688 1.082254409790039 0.03330802917480469 C 1.484153747558594 0.03324699401855469 1.863624572753906 0.1913070678710938 2.150704383850098 0.4783878326416016 L 3.08934497833252 1.417027473449707 C 4.654224395751953 0.2150821685791016 6.564420700073242 -0.4375038146972656 8.562494277954102 -0.4375038146972656 Z M 6.559267997741699 4.886991500854492 C 6.638398170471191 4.455233573913574 6.874289512634277 4.077679634094238 7.205623626708984 3.815606117248535 C 6.785600662231445 3.935152053833008 6.383522987365723 4.11015796661377 6.009071350097656 4.336794853210449 L 6.559267997741699 4.886991500854492 Z" stroke="none" fill="#3a1803"/>
  </g>
</svg>
