<svg id="Task_Not_Completed" data-name="Task Not Completed" xmlns="http://www.w3.org/2000/svg" width="40" height="40" viewBox="0 0 40 40">
  <g id="Ellipse_2" data-name="Ellipse 2" fill="#f3d73e" stroke="#3a1803" stroke-width="1">
    <circle cx="20" cy="20" r="20" stroke="none"/>
    <circle cx="20" cy="20" r="19.5" fill="none"/>
  </g>
  <g id="Ellipse_3" data-name="Ellipse 3" transform="translate(2 2)" fill="#554434" stroke="#3a1803" stroke-width="1">
    <circle cx="18" cy="18" r="18" stroke="none"/>
    <circle cx="18" cy="18" r="17.5" fill="none"/>
  </g>
  <path id="Rectangle_457" data-name="Rectangle 457" d="M0,0H36a0,0,0,0,1,0,0V0A18,18,0,0,1,18,18h0A18,18,0,0,1,0,0V0A0,0,0,0,1,0,0Z" transform="translate(2 20)" fill="#3a1803" opacity="0.3"/>
  <path id="Icon_metro-cross" data-name="Icon metro-cross" d="M18.425,14.782h0L13.571,9.928l4.854-4.854h0a.5.5,0,0,0,0-.707L16.132,2.074a.5.5,0,0,0-.707,0h0L10.571,6.928,5.717,2.074h0a.5.5,0,0,0-.707,0L2.717,4.367a.5.5,0,0,0,0,.707h0L7.571,9.928,2.717,14.782h0a.5.5,0,0,0,0,.707L5.01,17.782a.5.5,0,0,0,.707,0h0l4.854-4.854,4.854,4.854h0a.5.5,0,0,0,.707,0l2.293-2.293a.5.5,0,0,0,0-.707Z" transform="translate(9.429 10.072)" fill="#fff" stroke="#3a1803" stroke-width="1"/>
</svg>
