<svg version="1.2" xmlns="http://www.w3.org/2000/svg" viewBox="0 0 36 36" width="36" height="36">
	<title>Group 535-svg</title>
	<style>
		tspan { white-space:pre } 
		.s0 { fill: #ffe341 } 
		.s1 { fill: none;stroke: #3a1803 } 
		.s2 { fill: #ae0000 } 
		.s3 { fill: #3a1803 } 
		.s4 { opacity: .3;fill: #3a1803 } 
	</style>
	<g id="Group_535">
		<g id="Group_227">
			<g id="Ellipse_2">
				<path id="Layer" class="s0" d="m18 36c-10 0-18-8-18-18 0-10 8-18 18-18 10 0 18 8 18 18 0 10-8 18-18 18z"/>
				<path id="Layer" class="s1" d="m18 35.5c-9.7 0-17.5-7.8-17.5-17.5 0-9.7 7.8-17.5 17.5-17.5 9.7 0 17.5 7.8 17.5 17.5 0 9.7-7.8 17.5-17.5 17.5z"/>
			</g>
			<g id="Path_1398">
				<path id="Layer" class="s2" d="m18 31.5c-3.6 0-7-1.4-9.5-4-2.6-2.5-4-5.9-4-9.5 0-3.6 1.4-7 4-9.5 2.5-2.6 5.9-4 9.5-4 3.6 0 7 1.4 9.5 4 2.6 2.5 4 5.9 4 9.5 0 3.6-1.4 7-4 9.5-2.5 2.6-5.9 4-9.5 4z"/>
				<path id="Layer" fill-rule="evenodd" class="s3" d="m18 4c7.7 0 14 6.3 14 14 0 7.7-6.3 14-14 14-7.7 0-14-6.3-14-14 0-7.7 6.3-14 14-14zm0 1c-3.5 0-6.7 1.4-9.2 3.8-2.4 2.5-3.8 5.7-3.8 9.2 0 3.5 1.4 6.7 3.8 9.2 2.5 2.4 5.7 3.8 9.2 3.8 3.5 0 6.7-1.4 9.2-3.8 2.4-2.5 3.8-5.7 3.8-9.2 0-3.5-1.4-6.7-3.8-9.2-2.5-2.4-5.7-3.8-9.2-3.8z"/>
			</g>
			<path id="Rectangle_515" class="s4" d="m3.6 18h28.8c0 1.9-0.4 3.8-1.1 5.5-0.7 1.8-1.8 3.3-3.1 4.7-1.4 1.3-2.9 2.4-4.7 3.1-1.7 0.7-3.6 1.1-5.5 1.1-1.9 0-3.8-0.4-5.5-1.1-1.8-0.7-3.3-1.8-4.7-3.1-1.3-1.4-2.4-2.9-3.1-4.7-0.7-1.7-1.1-3.6-1.1-5.5z"/>
		</g>
	</g>
</svg>